<?xml version="1.0" standalone="no"?>
<!DOCTYPE svg PUBLIC "-//W3C//DTD SVG 1.1//EN" "http://www.w3.org/Graphics/SVG/1.1/DTD/svg11.dtd" >
<svg xmlns="http://www.w3.org/2000/svg" xmlns:xlink="http://www.w3.org/1999/xlink" version="1.1">
<metadata></metadata>
<defs>
<font id="card_charactersregular" horiz-adv-x="1331" >
<font-face units-per-em="2048" ascent="1638" descent="-410" />
<missing-glyph horiz-adv-x="500" />
<glyph horiz-adv-x="0" />
<glyph unicode="&#xd;" />
<glyph unicode=" " />
<glyph unicode="!" d="M524 -10v282h285v-282h-285zM528 979v719h273v-719l-45 -471h-181z" />
<glyph unicode="&#x22;" d="M334 1384v314h254v-314l-45 -335h-164zM743 1384v314h254v-314l-45 -335h-164z" />
<glyph unicode="#" horiz-adv-x="1689" d="M102 856q23 135 64 211l-16 6q27 78 69 107l12 -19q-33 -23 -55 -78q27 41 66 52q80 125 192 190q-53 -16 -100 -70l2 -2q-6 -4 -10 -8q-29 -27 -62 -71l-18 12q14 20 24 33q-16 -14 -32 -39l-19 12q14 25 33 41l-27 -14q-80 -59 -86 -181l-22 2q8 127 92 193l-2 2l4 2 q6 57 127 109l2 6l4 -2q117 98 264 102q242 4 531 -192q119 -80 212 -223.5t126 -286.5q41 -55 51 -129l-23 -3q-10 70 -49 121q-57 258 -289 467q-76 68 -204 129q-121 55 -230 78q-76 16 -131 17q-125 -2 -248 -101q-25 -41 -65 -74q10 6 24 11q51 61 115 80q53 55 166 57 q135 2 289 -57q289 -109 434 -332q90 -137 125 -262q70 -94 76 -238l-23 -2q-4 86 -35 162q16 -82 17 -148q2 -74 -19 -112l-18 8q16 37 16 104q-2 74 -26 185q-29 119 -62 176q-47 82 -74 119q-43 66 -84 110q-121 127 -336 209q-147 57 -280 55q-102 -2 -152 -51 q68 37 158 39q164 2 338 -94h8q63 2 198.5 -109.5t239.5 -353.5q51 -119 54 -272q2 -63 -8 -121l-23 2q8 55 8 129q-4 197 -125 400.5t-293 287.5q154 -106 264.5 -285.5t135.5 -365.5l4 -4l-2 -2q4 -33 4 -62q2 -125 -72 -211q-41 -49 -61 -69q-39 -35 -78 -52 q-61 -66 -127 -65q-100 -2 -193 131q-59 86 -139 277.5t-106 232.5q14 -135 153 -406q131 -252 287 -250q94 2 197 93l14 -17q-45 -41 -86 -63q74 29 158 76l10 -19q-219 -123 -348 -125q-23 0 -35 2q-18 -4 -37 -4q-109 -2 -195 119t-104 147q-55 86 -84 156v10 q2 33 -16 60q20 -133 84 -238q102 -160 135 -194q84 -84 213 -82h53q41 0 102 32q90 45 203 80l10 2l7 -20l-11 -4q-113 -33 -198 -78q-66 -35 -113 -35h-53q-178 -4 -301 184q-141 219 -158 377l-4 2l4 6q-47 139 -49 250q0 74 18 129l21 -6q-16 -53 -17 -121 q2 -109 48 -247q49 -39 45 -103q63 -158 200 -315q78 -90 160 -88q18 0 37 6q12 -4 35 -4q35 0 78 10h-19q-184 -4 -311 264q-150 313 -156 416q-2 14 -4 43l4 2q-8 31 -8 61q-2 131 88 154q29 4 84 18q-27 12 -51 11q-33 0 -62 -23l-14 17q37 29 80 30q25 0 67 -20 q135 -66 248 -248q23 -35 97 -186q33 -68 94 -203q6 -14 8 -35q4 12 4 27q0 14 -4 32l-8 9l4 4q-10 43 -39 96q-4 8 -14 25q-12 37 -39 110q-119 281 -316 383q-63 33 -141 31q-154 -2 -156 -152h-20q0 170 170 174q88 0 158 -34q203 -104 323 -390q14 -39 41 -112 q6 -10 16 -31q29 -57 41 -104q10 -14 17 -15q8 0 8 25q-158 436 -295 547q-90 74 -125 92q-51 27 -149 43l4 22q100 -16 153 -45q37 -20 131 -94q141 -115 304 -563q-2 -51 -27 -51q-8 0 -16 6v-6q4 -76 -62 -78q-63 0 -123 117q-125 246 -135 262q-115 207 -170 205h-4 q-8 -27 -6 -50q0 -37 43 -106.5t190 -331.5q90 -164 176 -162q23 0 45 15q0 2 3 2q104 76 104 149q-2 88 -104 299q-98 205 -168 277q-137 139 -308 190q-12 -12 -90 -18q-88 -8 -141 -43q-82 -53 -125 -185l-20 9q72 219 297 241q25 2 61 11v-5v-2l8 11q-10 -2 -24 -2 q-20 2 -56 6q-51 0 -112 -25q-219 -86 -213 -426q2 -78 12 -135q35 -184 102 -358q96 -242 201 -289q8 -8 23 -6q14 0 36 8q25 -45 134 -39l2 -23h-11q-76 -4 -118 21l2 -8q-25 -6 -50 -8q-47 0 -96 22l10 21q43 -20 86 -21q23 0 35 4l-4 4q-14 -4 -26 -4q-16 0 -37 10 q-39 25 -62 45q-88 88 -164 289q-63 172 -84 328q-12 86 -12 139q-6 326 193 432q-231 -90 -226 -366q0 -31 7 -74q0 -29 4 -84q47 -465 303 -686l-15 -16q-197 166 -274 493q-29 121 -45 332q-4 -51 -2 -107q8 -446 256 -665l-14 -17q-152 135 -211 316q-49 143 -54 377 q-6 326 109 477q-78 -78 -121 -260q-35 -150 -33 -291q2 -53 8 -109l-22 -2q-6 57 -8 111q-2 123 28 270q37 168 97 254l-25 -37v-6h-6q-100 -162 -107 -377h-22q4 203 94 359q-63 -55 -94 -244zM129 1182l39 69l2 -2l57 76l19 -12l-60 -78l-39 -64zM160 1290q45 80 94 80 q10 0 20 -4q152 125 320 127q63 2 121 -14q16 -4 43 -15q53 -10 157 -39q319 -121 500 -440q76 -4 133 -192l-22 -7q-39 133 -94 168q82 -143 94 -227l-23 -4q-12 90 -102 240q-2 6 -8 16q-80 145 -220.5 264t-295.5 172q-33 10 -123 29q-16 6 -43 14q-55 14 -117 15 q-66 -2 -172 -41q-119 -45 -143 -93l-3 2l-22 -22l-14 16l12 13q-35 -2 -74 -68zM176 1368q217 141 289 150q47 8 141 18q76 2 170 -29q121 -39 164 -55q90 -35 156 -78q229 -145 460 -493l-18 -13q-297 451 -629 572q-47 16 -139 46t-164 27q-111 -2 -221 -49 q-66 -31 -197 -114zM188 686q0 39 2 76l23 -2q-2 -37 -2 -78q6 -352 143 -518l-16 -14q-141 166 -150 536zM238 1249q44 25 73 60q-57 -33 -73 -60zM242 1452q55 47 84 47h12v-20q-33 -2 -82 -43zM260 1518q106 66 180 67q33 0 54 -12l84 18l4 -22l-82 -17q-14 -35 -66 -34 q-41 -2 -86 -29l-12 18q49 31 110 31q20 0 31 18q-16 8 -37 9q-61 -2 -170 -66zM279 1579q129 47 223 49q30 0 57 -6l-4 -20q-25 4 -51 4q-92 -2 -219 -47zM291 1044q47 100 143 156.5t207 56.5h12v-10q29 -8 54 -8q24 2 34 12q-96 31 -172 29q-205 -4 -278 -236zM301 1634 q68 33 158 33q38 2 71 -4l-2 -21q-37 4 -73 5q-80 -2 -144 -33zM319 1202q119 123 293 125q43 2 164 -24q25 -4 76 -19q100 -39 241.5 -183.5t182.5 -246.5q53 -137 90 -213q-43 201 -176 377t-311 260q-147 70 -277 68q-154 -4 -283 -144zM346 1739l107 14l4 -18 q16 10 43 18l6 -22q-37 -10 -53 -25q18 -6 28 -6q8 0 21 10l14 -16q-18 -14 -39 -17q-16 0 -39 11l-2 -2l-6 4l-74 -19l-6 23l78 16q8 12 23 21l-101 -15zM350 819q-2 72 4 135l23 -2q-8 -84 -8 -168q8 -428 247 -708q37 -46 62 -66l-14 -16q-152 129 -238 379 q-72 213 -76 446zM354 117l19 10q22 -43 90 -90l-14 -19q-70 51 -95 99zM387 1788h23q367 10 790 -215q213 -113 365 -238l-15 -18q-227 193 -546 321q-340 137 -615 127zM389 825q-2 74 8 115q10 35 43 104q18 39 23 48q16 25 37 34l8 -20q-25 -14 -51 -80l-8 4l6 -6 q-47 -51 -43 -197q2 -190 63 -403q29 -100 109 -231q90 -147 164 -189q43 -23 135 -20q51 0 114 12l4 -23q-61 -12 -114 -12q-104 -2 -150 25q-80 45 -172 194q-82 133 -110 238q-61 215 -66 407zM391 1815v22q215 0 443 -68q354 -104 477 -217h8q-49 53 -162 117 q-254 139 -680 203l2 22q575 -88 826 -299q16 -16 51 -47l59 -8q31 -14 88 -51l-14 -19q-25 20 -80 50l-23 2q46 -40 140 -103l-10 -20q-37 18 -170 127l-46 6q-61 59 -223 129q-135 57 -250 88q-252 66 -436 66zM430 795q-2 150 43 245q61 127 197 129h35l-3 -22h-24 q-229 -4 -225 -346q2 -74 14 -146q29 -184 125 -379q123 -250 260 -260l-2 -22l-10 2q-43 2 -105 51q-209 164 -291 604q-12 68 -14 144zM506 864v51h22v-49q4 -287 185 -536q-12 70 -107 270q-61 131 -65 272q-2 205 157 228l2 -23q-139 -20 -137 -200q4 -135 64 -267 q33 -76 67 -151q45 -109 41 -156q47 -59 97 -120.5t122 -86.5l-8 -20q-78 29 -130 92t-103 125l-2 2v2q-92 113 -147.5 266.5t-57.5 300.5zM510 1913v22q227 -6 508 -123q242 -102 459 -258l-15 -16q-197 143 -452 250q-287 119 -500 125zM549 1700q10 2 18 2q49 2 121 -51 q338 0 688 -310q4 0 8 2q63 0 152 -88l-14 -16q-74 74 -121 82q104 -96 174 -184l-16 -15q-82 104 -187 195h-2l-4 6q-346 299 -674 305l-2 -4l-8 4q-31 29 -119 23l-2 22q23 2 45 0q-29 10 -53 6zM549 1720l4 21q356 -59 629 -205q57 -29 172 -109q107 -73 170 -104 l-11 -20q-49 25 -135 81q-57 53 -207 134q-270 143 -622 202zM569 1303q66 0 168.5 -28t153.5 -65l4 2v-2q76 -6 119 -80q20 -14 108 -116q76 -88 144 -242q10 -27 28 -76q8 -10 21 -34q45 -84 47 -154q0 -49 -23 -88q-10 -80 -104 -148q-12 -57 -92 -59q-104 -2 -256 238 q16 -55 92 -142l-18 -14q-96 109 -97 170q0 10 2 20q-174 293 -176 400q0 59 37 61q12 0 29 -8q6 4 14 4q66 0 184 -205q76 -129 142 -274q45 -106 104 -105q-16 10 -31 35q-2 4 -67 125q-55 104 -168 309q-88 152 -189 150q-82 -2 -79 -82q0 -37 22 -86q113 -274 152 -352 q129 -258 231 -281l-4 -20q-147 31 -309 422q-37 88 -107 264v2q-6 27 -8 51q-2 102 102 104q115 2 207 -159q27 -43 170 -310q20 -45 68 -127q12 -20 24 -28q0 14 -8 37q-2 2 -45 98q-98 221 -143 293q-102 168 -227 227q-14 -12 -44 -17t-57 -9q-78 -20 -76 -127 q2 -37 15 -82q27 -25 116 -240q74 -174 121 -250q98 -164 197 -162q43 0 84 33q-6 -2 -14 -2q-92 -2 -156 96l18 13q57 -86 140 -86q23 0 43 8l8 10l6 -4q61 27 135 127q55 71 53 184q0 25 -4 53q-27 35 -65 132q-53 133 -56 137q-16 35 -79 121q-172 238 -332 299 q-20 8 -72 18q-125 23 -160 23q-23 0 -43 -2zM575 1604v22h11q371 8 719 -280q173 -146 282 -304l-18 -12q-162 242 -432 406q-291 176 -562 168zM590 1556v23q186 -6 350 -76q68 0 168 -55q217 -117 469 -449l-16 -12q-285 373 -517 469q276 -154 519 -520l-19 -12 q-115 178 -270 327q-186 180 -350 234q-160 68 -334 71zM600 -94l4 22q39 -8 74 -8q29 0 63 10l7 -22q-37 -8 -70 -10q-39 0 -78 8zM602 1952v22q188 -12 430 -116q203 -89 391 -220l-14 -16q-168 121 -385 213q-246 106 -422 117zM647 1995l4 20q397 -76 684 -266l-12 -18 q-279 186 -676 264zM698 -135l138 10l2 -20l-138 -13zM713 893q2 -115 161 -381q170 -279 271 -276q39 0 55 18q-14 -4 -31 -4q-117 -2 -219 215q-45 94 -168 291q-45 72 -45 114q0 23 6 50q-8 2 -14 2q-18 0 -16 -29zM741 1225q193 -55 322 -197q150 -162 272 -559 q4 19 4 37q0 45 -22 94q-20 43 -41 88q-8 20 -23 62q-57 147 -147 249q-31 39 -100 109l-2 -4q-98 39 -123 86q-35 27 -117 55q-8 -14 -23 -20zM758 2017l4 23q172 -27 291 -109q100 -10 190 -86l-14 -16q-88 72 -185 82q-113 80 -286 106zM770 885l18 10l7 -8 q119 -199 194 -330q29 -51 86 -154q55 -84 105 -84q49 0 104 74l16 -12q-57 -84 -116 -84q-66 -2 -127 96q-27 47 -82 144q-76 131 -199 337zM795 -170h22q117 0 199 37l8 -21q-84 -37 -209 -36l-20 -3v23zM842 -121q47 4 92 10q53 6 88 23l8 -21q-41 -18 -184 -34zM850 -66 q270 12 493 160l13 -18q-221 -145 -506 -164v22zM889 489h2v-2zM909 1186q21 -24 74 -49q-31 41 -74 49zM922 1255l8 -4zM930 1251l4 -2h2zM1036 -92q37 14 105 49l12 -18q-25 -18 -109 -52zM1165 -37l117 45l8 -20l-116 -45zM1243 215q127 68 148 174l20 -6q-8 -43 -35 -82 q20 16 49 80l21 -10q-31 -68 -60 -90l-12 16q-41 -59 -119 -102zM1294 209q41 14 82 74l17 -13q-43 -66 -90 -84zM1509 717l21 6l16 -57l-20 -7zM1548 844l21 8l18 -53l-20 -6z" />
<glyph unicode="$" d="M207 1155q0 139 110 244q102 96 244 117v182h187v-191q12 -2 129 -63v43h165l2 -340h-167q-4 125 -129 164v-346q147 -35 249 -138q115 -113 115 -256q0 -152 -105.5 -263t-258.5 -138v-178h-187v182q-37 8 -153 84v-55l-187 -2l-2 383q172 -2 187 -2q0 -154 155 -211 v426q-143 20 -244 116q-111 104 -110 242zM377 582h29h-29zM393 1155q0 -61 56 -108q44 -42 112 -58v334q-68 -16 -112 -57q-55 -47 -56 -111zM748 362q76 20 127 78t51 131q0 133 -178 199v-408z" />
<glyph unicode="%" d="M100 -4l887 1698h244l-885 -1698h-246zM100 1389q0 127 91.5 219t218.5 92t218 -92t91 -219q0 -129 -91 -220.5t-218 -91.5t-218.5 91.5t-91.5 220.5zM279 1389q0 -55 38.5 -93.5t92.5 -38.5q53 0 92 38t39 94q0 53 -39 92t-92 39t-92 -39t-39 -92zM618 297 q0 129 91.5 220t218.5 91t218 -91t91 -220t-91 -220t-218 -91t-218.5 91t-91.5 220zM797 297q0 -53 38.5 -92t92.5 -39q53 0 91 39t38 92t-38 92t-91 39t-92 -39t-39 -92z" />
<glyph unicode="&#x26;" d="M104 483q0 150 81 275t223 194l-185 310l2 440h889v-430h-203v223h-483v-176l502 -846v268h-84v207h379v-207h-90v-258q-10 -145 -64 -250l25 -40h131v-207h-248l-47 84q-145 -106 -314 -107q-213 0 -363.5 153.5t-150.5 366.5zM309 483q0 -129 90 -221t219 -92 q113 0 207 78l-311 526q-205 -86 -205 -291z" />
<glyph unicode="'" d="M528 1386v312h275v-312l-45 -337h-185z" />
<glyph unicode="(" d="M412 801q0 276 73 524q94 311 285 473l150 -178q-143 -123 -218 -383q-59 -209 -59 -436q0 -516 236 -787l-174 -151q-293 334 -293 938z" />
<glyph unicode=")" d="M412 1620q143 -123 217 -383q59 -209 59 -436q0 -516 -235 -787l174 -151q293 334 293 938q0 276 -74 524q-94 311 -285 473z" />
<glyph unicode="*" d="M129 1171l64 193l372 -121v391h201v-389l373 121l63 -192l-373 -121l230 -318l-162 -119l-231 318l-230 -318l-164 119l230 316z" />
<glyph unicode="+" d="M233 733v223h320v320h225v-320h320v-223h-320v-319h-225v319h-320z" />
<glyph unicode="," d="M514 -10v315h305v-315l-133 -254h-141l102 254h-133z" />
<glyph unicode="-" d="M336 733v223h659v-223h-659z" />
<glyph unicode="." d="M514 -10v315h305v-315h-305z" />
<glyph unicode="/" d="M90 -14l901 1718h250l-901 -1718h-250z" />
<glyph unicode="0" d="M102 541v608q0 238 164 410t400 172t399.5 -172.5t163.5 -409.5v-608q0 -238 -164 -413t-399 -175q-236 0 -400 175t-164 413zM340 541q0 -139 95 -242.5t231 -103.5q135 0 230 104t95 242v608q0 137 -95 237.5t-230 100.5t-230.5 -100.5t-95.5 -237.5v-608z" />
<glyph unicode="1" d="M190 -14v241h363v1233h-363v242h596v-1475h355v-241h-951z" />
<glyph unicode="2" d="M117 1300q0 213 159 328q143 102 365 103q221 0 383 -111q186 -125 186 -336q0 -197 -196 -369q-193 -147 -385 -294q-225 -188 -273 -402h639v217h219v-442h-1095v112q0 309 225 556q88 94 420 337q225 166 225 285q0 111 -125 172q-98 49 -223 49q-305 0 -305 -205 q0 -43 22 -96l-204 -86q-37 96 -37 182z" />
<glyph unicode="3" d="M80 416l209 73q43 -129 129 -210q98 -94 223 -95q156 0 268.5 123t112.5 279q0 154 -96.5 250t-251.5 96q-72 0 -113 -18.5t-98 -71.5l-158 155l510 480h-489v-220h-222v445h1121v-141l-437 -414q207 -39 331 -193.5t124 -367.5q0 -248 -178 -436.5t-424 -188.5 q-197 0 -352 135q-141 123 -209 320z" />
<glyph unicode="4" d="M111 393v178l710 1127h189v-1080h211v-225h-211v-182h104v-223h-463v223h140v182h-680zM403 618h388v615z" />
<glyph unicode="5" d="M90 381l205 86q49 -121 131 -199q96 -92 213 -92q164 0 272 154q98 137 99 305q0 170 -99 303q-106 145 -272 145q-141 0 -281 -153l-159 94v678h831v-225h-610v-220q106 49 219 50q258 0 430 -211q162 -197 162 -461t-160 -465q-174 -217 -432 -217q-184 0 -338 127 q-135 117 -211 301z" />
<glyph unicode="6" d="M111 850q0 360 98 580q139 301 457 301q156 0 288 -84q127 -82 207 -222l-190 -114q-111 195 -305 194q-254 0 -316 -379q141 125 314 125q254 0 413 -211q143 -190 144 -454q0 -246 -154 -434q-164 -199 -403 -199q-119 0 -248 78q-137 82 -219 301q-64 170 -80 373h-2 q-4 -8 -4 145zM338 692q18 -188 82 -323q90 -193 244 -193q147 0 245 135q92 123 92 275q0 170 -83 295q-94 145 -254 145q-117 0 -211 -113q-78 -94 -115 -221z" />
<glyph unicode="7" d="M113 1239v457h1001l113 -197q-420 -602 -584 -1507h-240q145 829 510 1462h-565v-215h-235z" />
<glyph unicode="8" d="M100 489q0 262 228 420q-164 135 -164 342q0 199 153 334q147 129 349 129q201 0 348 -129q154 -135 153 -334q0 -205 -163 -342q227 -156 227 -420q0 -223 -169 -372.5t-396 -149.5t-394 148q-172 152 -172 374zM319 489q0 -129 111 -217q102 -80 236 -79q133 0 235 79 q111 88 111 217q0 131 -111 218q-102 81 -235 81t-236 -81q-111 -86 -111 -218zM383 1251q0 -104 92 -174q82 -66 191 -65q109 0 190 65q92 70 92 174t-92 174q-81 66 -190 66t-191 -66q-92 -70 -92 -174z" />
<glyph unicode="9" d="M104 1108q0 246 156 428q162 193 404 193q299 0 448 -310q115 -240 115 -575q0 -352 -113 -584q-147 -305 -463 -305q-307 0 -487 315l192 113q115 -203 295 -203q268 0 336 424q-143 -115 -323 -115q-242 0 -404 191q-156 184 -156 428zM326 1108q0 -152 92 -268 q98 -127 246 -127q125 0 217 96q82 86 112 215q-59 479 -329 479q-147 0 -246 -127q-92 -117 -92 -268z" />
<glyph unicode=":" d="M514 -10v315h305v-315h-305zM514 692v315h305v-315h-305z" />
<glyph unicode=";" d="M514 -10v315h305v-315l-133 -254h-141l102 254h-133zM514 692v315h305v-315h-305z" />
<glyph unicode="&#x3c;" d="M344 524l516 518l127 -127l-391 -391l391 -391l-127 -125z" />
<glyph unicode="=" d="M131 -10v1710h221v-1710h-221zM477 322v1040q0 150 105.5 259.5t255.5 109.5q152 0 257 -110t105 -259v-1040q0 -152 -105 -260.5t-257 -108.5q-150 0 -255.5 108.5t-105.5 260.5zM698 322q0 -59 41 -102.5t99 -43.5q59 0 100 43t41 103v1040q0 57 -41 100t-100 43 q-57 0 -98.5 -43t-41.5 -100v-1040z" />
<glyph unicode="&#x3e;" d="M344 133l391 391l-391 391l127 127l516 -518l-516 -516z" />
<glyph unicode="?" d="M106 1169q10 238 165 400t395 162q227 0 393 -156t166 -377q0 -186 -123 -326.5t-326 -187.5v-170h-219l-2 383h111q133 0 236.5 85t103.5 216q0 133 -107 223q-102 84 -233 84q-158 0 -248 -98q-84 -88 -92 -238h-220zM530 -10v280h275v-280h-275z" />
<glyph unicode="@" d="M102 553v606q0 236 166 401.5t398 165.5q233 0 398 -166.5t167 -416.5q0 -72 -2 -418q0 -119 -51 -195q-61 -90 -185 -90q-86 0 -151 58q-78 -61 -176 -62q-117 0 -200 82t-83 201v252q0 117 84 199.5t199 82.5t197.5 -83t82.5 -199v-252q0 -51 4 -64q8 -27 43 -26 q49 0 49 49v481q0 158 -111.5 268.5t-264.5 110.5q-156 0 -266.5 -110.5t-110.5 -268.5v-606q0 -158 110.5 -267.5t266.5 -109.5h454v-188h-454q-231 0 -397.5 164.5t-166.5 400.5zM571 719q0 -39 28 -66.5t67 -27.5q37 0 65.5 27.5t28.5 66.5v252q0 39 -27.5 66.5 t-66.5 27.5t-67 -27.5t-28 -66.5v-252z" />
<glyph unicode="A" d="M104 -18v206h150l283 1510h256l284 -1510h150v-206h-457v206h98l-32 181h-340l-33 -181h98v-206h-457zM535 575h262l-131 699z" />
<glyph unicode="B" d="M104 -18v206h179v1307h-179v207l574 -2q197 0 336 -119q149 -128 149 -331q0 -193 -172 -343q236 -166 236 -413q0 -236 -160 -379q-154 -135 -391 -135l-168 2h-404zM485 188h183q156 0 247 66q109 80 109 240q0 139 -121 225q-109 78 -262 78h-156v-609zM485 993h156 q129 12 217 74q100 72 100 180q0 164 -172 217q-92 31 -301 31v-502z" />
<glyph unicode="C" d="M143 496v696q0 238 143.5 388.5t379.5 150.5q86 0 180 -41q82 -35 121 -80v90h221v-537h-221q0 342 -301 342q-141 0 -221 -85t-80 -228v-696q0 -143 79.5 -231.5t221.5 -88.5q150 0 229 103q72 92 72 247h221q0 -254 -133 -409q-141 -164 -389 -164q-233 0 -378 153.5 t-145 389.5z" />
<glyph unicode="D" d="M98 -18v225h203v1270h-203v225h496q346 0 508 -270q131 -217 131 -588q0 -328 -123 -563q-156 -299 -459 -299h-553zM522 207h117q205 0 301 231q72 170 72 406q0 633 -406 633h-84v-1270z" />
<glyph unicode="E" d="M104 -18v225h162v1270h-162v225h1123v-445h-219v220h-521v-521h527v-223h-527v-526h521v219h219v-444h-1123z" />
<glyph unicode="F" d="M104 -18v225h162v1270h-162v225h1123v-445h-219v220h-521v-521h527v-223h-527v-526h156v-225h-539z" />
<glyph unicode="G" d="M111 487v713q0 215 149.5 373t366.5 158q162 0 293 -97v66h221v-531h-219q0 139 -78 234q-82 102 -217 102q-123 0 -209 -91t-86 -214v-713q0 -123 86 -212t209 -89q121 0 208 89.5t87 211.5v246h-285v223h584v-223h-80v-246q0 -215 -149.5 -370.5t-364.5 -155.5 t-365.5 155.5t-150.5 370.5z" />
<glyph unicode="H" d="M102 -18v206h154v1307h-154v207h504v-207h-145v-547h409v547h-145v207h504v-207h-154v-1307h154v-206h-504v206h145v553h-409v-553h145v-206h-504z" />
<glyph unicode="I" d="M190 -14v241h363v1231h-363v244h951v-244h-355v-1231h355v-241h-951z" />
<glyph unicode="J" d="M111 446l2 138h235l-2 -108v3q0 -123 51 -196q61 -88 185 -88q104 0 168 75q57 70 57 174v1014h-186v244h600v-244h-179v-1014q0 -207 -124 -346q-131 -145 -336 -145q-207 0 -340 143q-131 142 -131 344v6z" />
<glyph unicode="K" d="M102 -18v188h158v1343h-158v189h478v-189h-134v-653l420 653h-161v189h524v-189h-150l-342 -530l348 -813h144v-188h-524v188h167l-262 614l-164 -254v-360h134v-188h-478z" />
<glyph unicode="L" d="M104 -18v225h162v1270h-162v225h539v-225h-156v-1270h521v219h219v-444h-1123z" />
<glyph unicode="M" d="M98 -18v170h111v1378h-111v172h353l215 -1036l215 1040h352v-170h-111v-1378h111v-170h-393v170h112v1052l-202 -979h-168l-203 977v-1056h113v-170h-394z" />
<glyph unicode="N" d="M102 -18v188h156v1343h-156v189h402l381 -1131v942h-133v189h477v-189h-156v-1521h-190l-437 1298v-1120h158v-188h-502z" />
<glyph unicode="O" d="M102 541v608q0 238 164 410t400 172t399.5 -172.5t163.5 -409.5v-608q0 -238 -164 -413t-399 -175q-236 0 -400 175t-164 413zM340 541q0 -139 95 -242.5t231 -103.5q135 0 230 104t95 242v608q0 137 -95 237.5t-230 100.5t-230.5 -100.5t-95.5 -237.5v-608z" />
<glyph unicode="P" d="M104 -18v225h162v1270h-162v225h648q199 0 337 -143.5t138 -341.5q0 -201 -139.5 -343.5t-337.5 -142.5h-263v-524h156v-225h-539zM487 956h265h5q101 0 174 76q75 78 75 185q0 106 -75 183t-179 77h-265v-521z" />
<glyph unicode="Q" d="M104 506v196q6 2 113 9v608q0 166 137 289q130 118 294 118h3q166 0 300 -120.5t134 -286.5v-965q0 -70 -28 -137q29 -18 53 -24h117v-207q-121 0 -174 10q-61 14 -119 57q-129 -104 -283 -104q-166 0 -297 119q-137 123 -137 286v152h-113zM426 354q0 -72 71.5 -131 t153.5 -59q64 0 123 39l-264 258q-33 33 -84 41v-148zM426 711q125 -14 250 -115q78 -61 198 -197v920q0 74 -70.5 133t-152.5 59t-153.5 -59t-71.5 -133v-608z" />
<glyph unicode="R" d="M104 -18v225h162v1270h-162v225h648q199 0 337 -143.5t138 -341.5q0 -174 -110.5 -310.5t-280.5 -167.5l223 -528h162v-223h-308l-315 743h-111v-524h156v-225h-539zM487 956h265h5q101 0 174 76q75 78 75 185q0 106 -75 183t-179 77h-265v-521z" />
<glyph unicode="S" d="M100 -10l2 530h217q2 -150 99.5 -247t247.5 -97q135 0 240.5 91t105.5 222q0 129 -121 218q-110 81 -243 81h-3q-205 0 -369 130q-174 139 -174 333q0 199 150.5 339.5t351.5 140.5q195 0 324 -86v55h221l-2 -479l-219 2q0 119 -98.5 200.5t-225.5 81.5q-109 0 -192 -71 q-90 -76 -90 -183q0 -102 112 -174q98 -63 211 -63q229 0 404 -148q182 -154 182 -377t-170 -379.5t-395 -156.5q-190 0 -344 113v-76h-222z" />
<glyph unicode="T" d="M104 1257v445h1123v-445h-221v220h-226v-1270h211v-225h-635v225h205v1270h-235v-220h-222z" />
<glyph unicode="U" d="M104 1473v225h469v-225h-127v-1061q0 -92 64.5 -164t157.5 -72q90 0 153 74q61 68 62 162v1061h-125v225h469v-225h-123l-2 -1063q0 -184 -123 -320q-129 -137 -311 -137q-184 0 -312.5 137t-128.5 322v1061h-123z" />
<glyph unicode="V" d="M104 1473v225h469v-225h-96l189 -1006l186 1006h-94v225h469v-225h-150l-274 -1481h-273l-276 1481h-150z" />
<glyph unicode="W" d="M104 1532v170h306v-170h-91l127 -1159l125 1159h-73v170h344v-170h-82l125 -1159l127 1159h-88v170h303v-170h-45l-172 -1559h-250l-94 813l-95 -813h-249l-172 1559h-46z" />
<glyph unicode="X" d="M102 -18v225h144l297 637l-295 633h-146v225h488v-225h-98l174 -371l172 371h-97v225h488v-225h-146l-297 -633l299 -637h144v-225h-488v225h101l-176 377l-177 -377h101v-225h-488z" />
<glyph unicode="Y" d="M104 1477v225h469v-225h-98l191 -484l190 484h-98v225h469v-225h-133l-320 -818v-452h211v-225h-637v225h205v471l-317 799h-132z" />
<glyph unicode="Z" d="M104 -12v176l834 1313h-608v-220h-219v445h1106v-201l-820 -1290h609v219h211l2 -442h-1115z" />
<glyph unicode="[" horiz-adv-x="1843" d="M250 807q365 322 672 903q307 -582 671 -903q-365 -322 -671 -903q-307 581 -672 903z" />
<glyph unicode="\" horiz-adv-x="4339" d="M102 268h76l15 -342l24 342h68l24 -338l17 338h73l-59 -504h-59l-29 320l-31 -320h-59zM168 1694q0 106 45 194q57 106 154 107q98 0 155 -107q45 -88 45 -194t-45 -195q-57 -106 -155 -106q-96 0 -154 106q-45 88 -45 195zM221 1694q0 -82 33 -152q41 -86 113 -86 q74 0 114 86q31 70 31 152t-31 149q-41 86 -114 86q-72 0 -113 -86q-33 -68 -33 -149zM256 1694q0 66 23 114q31 68 88 68q92 0 108 -145h-65q-6 61 -39 61q-41 0 -41 -100q0 -96 45 -97q29 0 35 58h63q-16 -141 -100 -142q-59 0 -90 66q-27 51 -27 117zM416 268h76l14 -342 l24 342h68l25 -338l16 338h74l-58 -504h-61l-29 320l-30 -320h-60zM492 584v649h86v-291h47v291h86v-649h-86v274h-47v-274h-86zM610 1401q84 297 84 481q0 74 -43 74q-23 0 -41 -21v84q39 35 74 35q100 0 100 -158q0 -127 -63 -411h70v-84h-181zM731 268h74l16 -342l23 342 h67l25 -338l16 338h74l-57 -504h-62l-28 320l-29 -320h-59zM758 584v649h86v-563h51v-86h-137zM823 1722q0 332 115 332q117 0 117 -336q0 -322 -111 -321q-121 0 -121 325zM913 834q0 254 95 253q94 1 94 -253t-90 -254q-98 0 -99 254zM913 1737q0 -209 27 -242 q25 37 25 219q0 199 -27 240q-25 -33 -25 -217zM991 842q0 -160 19 -176q16 20 16 165q0 158 -16 170q-18 -12 -19 -159zM1042 -188q0 47 48 47q49 0 49 -47t-49 -48q-47 0 -48 48zM1085 1722q0 332 117 332t117 -336q0 -322 -111 -321q-123 0 -123 325zM1135 584v649h75 v-174q23 31 52 31q61 0 61 -95v-411h-74v407q0 25 -18 25q-12 -6 -23 -17v-415h-73zM1165 -231v649h76v-174q25 31 53 30q59 0 60 -94v-411h-74v405q0 25 -18 25q-12 -4 -23 -15v-415h-74zM1178 1737q0 -209 26 -242q23 37 23 219q0 199 -25 240q-25 -33 -24 -217z M1348 1395v90q74 8 73 102q0 100 -73 103v71h6q66 -2 65 121q0 84 -49 84q-10 0 -22 -4v82q18 10 41 10q61 0 94 -59q27 -47 26 -113q0 -111 -61 -149q65 -48 65 -148q0 -180 -165 -190zM1350 1034l47 56q20 -6 37 -35q27 35 57 35q59 0 59 -89v-417h-73v409q0 23 -19 23 q-12 0 -20 -12v-420h-74v411q0 29 -14 39zM1395 -12v59q0 225 153 225h35v-372q1 -56 21 -72l-43 -64q-25 6 -41 43q-20 -43 -52 -43q-74 0 -73 224zM1470 -39q0 -123 27 -123q6 0 12 4v338q-39 -12 -39 -127v-92zM1589 831v60q0 197 94 196q93 0 93 -145q0 -133 -107 -160 q0 -41 14 -75q20 -45 58 -45q10 0 33 8v-84q-16 -6 -41 -6q-143 0 -144 251zM1612 217l45 55q41 -14 47 -71q53 72 72 71v-92q-27 -6 -49.5 -32.5t-22.5 -51.5v-327h-76v409q0 25 -16 39zM1636 1401v649h88v-293h45v293h86v-649h-86v272h-45v-272h-88zM1665 864q37 15 37 76 q0 49 -16 72q-20 -35 -21 -82v-66zM1792 1034l45 53q41 -14 47 -69q53 70 72 69v-92q-25 -4 -48.5 -30.5t-23.5 -53.5v-327h-74v411q0 25 -18 39zM1794 18q0 254 92 254q96 0 96 -254t-92 -254q-96 0 -96 254zM1870 25q0 -158 18 -175q19 21 19 166q0 158 -19 170 q-18 -14 -18 -161zM1898 1618v61q0 225 154 226h35v-373q0 -58 20 -72l-43 -63q-25 4 -41 43q-20 -43 -51 -43q-74 0 -74 221zM1974 1593q0 -125 27 -125q6 1 12 7v335q-39 -12 -39 -127v-90zM2007 872q0 121 55 215q66 111 179 111q98 0 153 -84q49 -72 49 -174 q0 -72 -28 -141q-37 -86 -99 -86q-43 0 -55 49q-27 -49 -70 -49q-82 0 -82 139q0 66 29 129q35 78 90 78q39 0 58 -41l4 26h65q-12 -57 -26 -114q-16 -70 -17 -115q0 -8 6 -20l9 -7q31 0 47 68q12 47 12 88q0 76 -31 123q-39 57 -108 57q-90 0 -142 -86q-43 -72 -43 -168 q0 -92 39 -157q47 -80 133 -80q76 0 150 84l26 -62q-82 -96 -180 -96q-111 0 -172 107q-51 86 -51 206zM2019 -170v588h74v-547q0 -41 25 -51l-58 -56q-41 12 -41 66zM2116 1849l45 56q41 -14 47 -72q53 72 71 72v-95q-27 -4 -49 -30.5t-22 -50.5v-328h-76v409q0 25 -16 39z M2138 43q0 231 115 231v144h74v-529q0 -45 18 -61l-43 -66q-31 8 -41 45q-25 -43 -49 -43q-74 0 -74 189v90zM2183 844q0 -57 25 -58q23 0 41 68q16 55 16 92q0 41 -24 41q-25 0 -43 -59q-14 -47 -15 -84zM2214 -35q0 -127 27 -127q8 0 12 6v338q-39 -12 -39 -114v-103z M2298 1649q0 256 92 256q94 0 94 -256q0 -254 -90 -254q-96 0 -96 254zM2357 -147q12 -16 31 -17q37 0 37 39q0 49 -33 142.5t-33 142.5q0 115 78 114q20 0 49 -16v-70q-14 12 -26 13q-31 0 -31 -39q0 -47 32.5 -140.5t32.5 -144.5q0 -113 -86 -113q-29 0 -51 13v76z M2374 1657q0 -158 18 -176q18 21 18 168q0 156 -18 170q-18 -14 -18 -162zM2507 803v59q0 225 151 225h37v-370q1 -58 19 -72l-43 -65q-23 6 -41 43q-20 -43 -52 -43q-72 0 -71 223zM2515 205v63h31q0 158 100 154h10v-72q-29 -2 -35 -31v-51h35v-63h-35v-398 q0 -133 -106 -133v82q33 -2 33 64v385h-33zM2523 1462v588h74v-549q-1 -41 24 -51l-57 -53q-41 12 -41 65zM2583 776q0 -123 24 -123q8 0 12 6v336q-37 -12 -36 -127v-92zM2642 1585v90q0 229 115 230v145h73v-528q1 -46 19 -62l-43 -65q-31 8 -41 45q-25 -43 -49 -43 q-74 0 -74 188zM2677 18q0 254 92 254q96 0 96 -254t-92 -254q-96 0 -96 254zM2718 1595q0 -127 26 -127q9 1 13 9v338q-39 -12 -39 -115v-105zM2726 834q0 254 92 253q96 1 96 -253t-92 -254q-96 0 -96 254zM2753 25q0 -158 18 -175q18 21 18 166q0 158 -18 170 q-18 -14 -18 -161zM2802 842q0 -160 18 -176q19 20 19 165q0 158 -19 170q-18 -12 -18 -159zM2882 219l47 55q23 -6 39 -36q27 37 57 36q59 0 59 -90v-415h-75v409q0 20 -19 21q-10 0 -18 -13v-417h-74v411q0 29 -16 39zM2951 647v586h74v-547q-1 -41 24 -51l-57 -55 q-41 12 -41 67zM2972 1401v649h88v-563h51v-86h-139zM3060 627q0 47 49 47q47 0 47 -47t-47 -47q-49 0 -49 47zM3113 205v22q27 27 92 123h21v-82h36v-63h-36v-342q0 -27 20 -27q4 0 16 6v-63q-20 -14 -38 -15q-72 0 -72 86v355h-39zM3129 1649q0 256 93 256q94 0 94 -256 q0 -254 -90 -254q-96 0 -97 254zM3174 805v72q0 213 107 213q16 0 35 -7v-75q-14 6 -19 6q-47 0 -47 -137v-76q0 -145 41 -146q16 0 25 11v-74q-18 -14 -37 -14q-104 0 -105 227zM3205 1657q0 -158 19 -176q18 21 18 168q0 156 -18 170q-18 -14 -19 -162zM3283 -147 q12 -16 31 -17q37 0 37 39q0 49 -34 142.5t-34 142.5q0 115 78 114q23 0 51 -16v-70q-14 12 -29 13q-29 0 -28 -39q0 -47 32.5 -140.5t32.5 -144.5q0 -113 -86 -113q-29 0 -51 13v76zM3336 834q0 254 92 253q97 1 97 -253t-93 -254q-96 0 -96 254zM3348 1401v649h76v-174 q25 31 54 31q59 0 59 -97v-409h-74v405q0 25 -18 25q-12 -6 -23 -16v-414h-74zM3412 842q0 -160 18 -176q19 20 19 165q0 158 -19 170q-18 -12 -18 -159zM3437 -188q0 47 47 47q49 0 49 -47t-49 -48q-47 0 -47 48zM3549 1036l43 54q33 -10 41 -39q25 39 57 39q35 0 54 -37 q29 37 59 37q57 0 57 -93v-413h-73v403q0 27 -19 27q-12 -4 -20 -15v-415h-74v405q0 25 -18 25q-12 -4 -19 -15v-415h-76v422q0 20 -12 30zM3551 -12v73q0 213 105 213q16 0 34 -8v-76q-14 6 -18 7q-45 0 -45 -136v-75q0 -145 39 -146q18 0 27 10v-73q-20 -14 -39 -15 q-102 0 -103 226zM3564 1849l47 56q20 -4 36 -35q27 35 58 35q61 0 61 -88v-416h-76v409q0 20 -18 21q-10 0 -18 -12v-418h-76v409q0 29 -14 39zM3711 18q0 254 94 254t94 -254t-90 -254q-98 0 -98 254zM3789 25q0 -158 18 -175q17 21 17 166q0 158 -17 170 q-18 -14 -18 -161zM3803 1649v57q0 199 94 199q93 -1 93 -148q0 -131 -107 -160q0 -41 16 -75q20 -45 56 -45q12 0 32 10v-84q-16 -6 -41 -6q-143 0 -143 252zM3881 1681q35 13 35 76q0 47 -17 70q-18 -35 -18 -82v-64zM3926 221l43 53q31 -10 39 -38q27 39 59 38 q33 0 52 -36q29 37 59 36q59 0 59 -92v-413h-73v403q0 27 -19 27q-12 -6 -20 -17v-413h-74v405q0 25 -18 25q-12 -6 -21 -17v-413h-74v421q0 20 -12 31zM4008 1849l45 56q41 -14 45 -72q55 72 72 72v-95q-25 -4 -48.5 -30.5t-23.5 -50.5v-328h-74v409q0 25 -16 39z" />
<glyph unicode="]" horiz-adv-x="1843" d="M47 578q0 158 112.5 271.5t270.5 113.5q152 0 262 -105l37 64q-96 53 -153.5 149t-57.5 205q0 166 119 284.5t285 118.5t284.5 -118.5t118.5 -284.5q0 -109 -57.5 -205t-153.5 -149l37 -64q110 105 262 105q158 0 270.5 -114t112.5 -271q0 -158 -112.5 -270.5 t-270.5 -112.5q-143 0 -252.5 95t-128.5 238h-53q8 -362 156 -598h-426q147 236 155 598h-53q-18 -143 -128 -238t-253 -95q-158 0 -270.5 112.5t-112.5 270.5z" />
<glyph unicode="^" horiz-adv-x="3139" d="M102 -291v2351h756q-12 -41 -39 -125q-33 -100 -47 -100q-12 0 -37 12q-33 -16 -33 -55q0 -31 40 -123t40 -135q0 -100 64 -100q0 -49 18 -50q39 0 109 15q78 14 102 31l-31 20q-14 12 -14 33q-2 2 72 2q14 0 153 -43q20 -6 70 -53q39 -37 119 -37q68 0 211 82t205 82 q4 -2 16 -50l147 -18l37 2q41 29 105 29q6 0 34.5 -10.5t47.5 -10.5q94 0 94 117q0 133 -82 248q-8 12 -2 41q-43 20 -86 121q-6 6 -21 10l-14 14q0 18 -10 51h506q-8 -16 -49 -246.5t-48 -275.5l11 -25q-4 2 45 3q68 0 88 -142q-25 33 -45 33q-14 0 -42 -8t-42 -8 q6 20 31.5 37.5t25.5 23.5q0 33 -20 33q-47 0 -80 -19q-43 -25 -43 -65q0 -41 30 -41q8 0 19 4l-31 -59l8 -17q35 -20 35 -33q0 -12 -43 -43q33 -10 33 -28q0 -10 -30.5 -35t-30.5 -49q0 -39 24 -39q12 0 37 24q16 -8 16 -18l-4 -10q-55 -31 -55 -92q0 -18 5 -55.5t7 -53.5 q0 -27 8 -27q39 0 105 154q57 131 67 203l13 -2q-14 -125 -78 -242q-20 -39 -109 -168q-55 -80 -55 -127q0 -68 148 -192q70 -57 206 -168q51 -43 115 -80q37 -18 74 -37q59 -35 59 -53q0 -37 -33 -37q39 0 -43 41t-110 41h-8l-4 -19h-11q-6 27 -32.5 69t-51.5 42l-12 -10 q-23 -37 -22.5 -139.5t-16.5 -143.5l4 -16h4q2 0 25.5 7t47.5 7t24 33q0 16 -15 22q-16 -14 -28 -24q-25 0 -25 16q0 94 39 182q10 -25 10 -94q0 -43 21 -43q12 0 36.5 3t36.5 3q6 0 15.5 27t17.5 27q14 0 23.5 -32t33.5 -36q-8 -55 -43 -55q-10 0 -20 16l-12 16l-13 3 l-16 -13q-8 -16 -35 -35q4 -49 35 -49q12 0 36.5 18.5t37.5 18.5q14 0 30 -14v-25h-30q-47 -29 -54 -28q-8 0 -20 6q-20 -8 -20 -21q0 -10 18 -18q10 0 29 18q66 -18 65 -49q-8 -27 -43 -27q-12 0 -12 -4q0 -33 59 -32q20 0 68 -33q-47 -29 -109 -29q-41 0 -88 14l-10 15 q12 10 27 37l-9 4q-18 -10 -53 -29l-2 -12q0 -6 31 -23h-96v33q0 47 -35 47q-14 0 -15 -16l5 -31h-25q-16 2 -23 -6q-4 -8 2 -27h-75q39 27 39 60q-6 6 -19 6q-10 0 -31.5 -12.5t-31.5 -12.5q-23 0 -23 27q0 16 41 27.5t45 19.5q27 27 66 84q35 0 35 -12q0 -20 -30 -48 t-32 -34l19 -11q6 2 24.5 13.5t30.5 11.5q14 0 35.5 -26.5t38.5 -26.5q29 0 38 26q-57 10 -112 68q8 8 16 33q-25 35 -24 78q0 25 9 70.5t9 70.5q0 215 -65 215q-8 0 -23.5 -4t-22.5 -4q-16 0 -20 14q-2 6 -2 14t2 19l2 29q0 8 -6 14q-27 25 -84 70v-9q0 -37 25.5 -106.5 t25.5 -104.5q0 -121 -8 -180q12 -16 22 -29q0 -25 -24 -24h-27q0 29 2 85t2 85q0 168 -71 250q-37 -57 -109 -142q-86 -100 -123 -120q-4 -12 -27.5 -43t-23.5 -45q0 -10 2 -15q61 35 121 123q33 49 98 145q-49 -221 -293 -354q-4 -2 -12 -2t-23.5 8.5t-23.5 8.5 q-8 -4 -11 -29t-14 -29q-14 -10 -47 -22q-174 -53 -235 -52q-18 -20 -137 -47q-104 -25 -150 -24q-12 0 -25 16l-26 -18q59 -41 127 -41q70 0 178 47l174 78q-37 -53 -145 -99q-100 -41 -170 -41q-10 -16 -56 -24q-33 -4 -65 -10q-47 -12 -70 -13q-43 0 -108.5 56.5 t-89.5 56.5q-18 0 -23 -39q-2 -27 -6 -55l-10 -2q-10 6 -25 24q0 25 12.5 68t12.5 65q0 25 -17.5 59t-40.5 34q-37 -10 -80 -125q-53 -137 -67 -158q10 121 90 283l-8 8q-14 -12 -25 -39q-16 -39 -18 -43q-8 -12 -42 -39t-34 -51l8 -2q6 2 8 2q16 0 17 -8l-8 -13 q-6 -6 -19 -18l-6 24q-74 -20 -74 -59q0 -20 60 -20v-11l-80 -2q-117 -2 -117 53q0 16 10 35l-6 4q-14 -6 -55 -55q-35 -41 -66 -41q-37 0 -66.5 52.5t-41.5 52.5q-10 0 -10 -13q0 -45 41 -86q-106 0 -347 -4zM268 -223q0 -31 23 -31q25 0 24 29q1 30 -26 30l-8 -2 q-12 -6 -13 -26zM446 -47v-8q0 -25 29 -25q23 18 23 31q0 14 -33 14zM496 -225q2 -25 18 -25q18 0 18 17q-6 12 -24 12zM508 -127q0 -4 29 -10q20 0 20 18q-4 10 -16 10q-6 0 -19.5 -7t-13.5 -11zM526 33q4 -43 21 -43q20 0 20 26q0 25 -22 25zM559 1255q0 -39 90 -223 l15 -8l2 23q0 6 -10.5 29.5t-10.5 35.5q0 6 17.5 50t17.5 69q0 14 -27.5 62t-38.5 48q-55 0 -55 -86zM561 -197l10 -4q18 8 52 53.5t61 59.5q4 8 4 18t-4 25l16 -2q55 0 68 53l-16 8q-119 0 -191 -211zM659 -174l9 -4q23 12 22 20l-2 4l-10 7q-18 0 -19 -27zM676 -242 q0 -8 6 -8q-14 0 47 17q0 27 33 69q4 43 35 55q23 10 30 25l-6 21q-14 8 -26 8q-33 0 -76 -74t-43 -113zM737 1128q-2 -49 8 -143q12 -102 13 -143q0 -18 28.5 -24.5t28.5 -12.5l-12 -25q-31 -14 -31 -43q0 -20 20.5 -62t36.5 -42q10 0 25.5 14.5t17.5 14.5q8 0 15 -5 q45 -55 114 -186q-39 -10 -38 -55q0 -41 67 -121l21 -8q14 8 14 22l-2 10q-6 4 -33 5v22q8 14 21 14q6 0 19 -12l13 -12q12 10 47 59q27 39 60 39q14 0 14 -35q-55 -23 -55 -69l6 -25q14 -10 25 -10q8 0 12 4l-6 25v18q41 20 45 23q18 14 18 43q35 0 37 -15 q-31 -66 -82 -203l4 -18l17 2q10 31 6 47q41 0 104 82q39 -2 64.5 28.5t40.5 30.5q10 0 27.5 -11t27.5 -11q43 0 74 14l61 39q14 -4 29.5 -31.5t26.5 -37.5q-10 0 -24.5 5t-23.5 5l-12 -6q-14 -49 -47 -138q-2 -4 -43 -18v-14q-4 -35 37 -105q10 6 18 6q25 0 35 -28l14 10 q4 8 31 51t27 45q0 27 -78 43q6 8 12 56q6 35 33 34q23 0 29 -39q8 -47 12 -51l27 -8q27 14 24 47q-2 18 -2 29q0 14 21 14q16 -6 18 -33q94 4 94 146q0 23 -6 41q4 0 11.5 -3t11.5 -3q4 4 20 24q-4 31 -31.5 54.5t-60.5 23.5q-94 0 -282.5 -17.5t-282.5 -17.5 q-12 0 -31.5 9.5t-30.5 9.5q-14 -18 -30 -33q-12 0 -27 8q-4 -4 -15.5 -23.5t-15.5 -19.5l-4 2q-55 12 -55 152q0 14 4 28q12 4 35 15q57 86 106 86q29 0 27 -15q-10 -23 -21 -28q-39 -14 -39 -45q8 -12 17 -13h8q96 111 115 111q8 0 24.5 -4t22.5 -4q14 0 14 20 q0 39 -43 39q-8 0 -23.5 -6t-23.5 -6q-23 0 -37 22.5t-14 44.5q0 74 86 134q16 27 16 108q0 16 -6 64q-2 41 2 65l-8 4q-12 -8 -36.5 -67.5t-53.5 -83.5q-53 -45 -150 -45q-33 0 -94 22.5t-82 22.5q-8 0 -18 -7l-17 -6q-90 47 -122 123h-9zM739 68q0 -25 21 -25q23 10 22 39 l-10 22h-4q-10 0 -29 -36zM801 41q8 4 45 27q31 20 31 34l-9 19l-8 2q-20 0 -39.5 -28t-19.5 -48v-6zM811 756l10 10q29 -29 29 -49l-6 -17l-13 -14q-12 12 -13 39t-7 31zM823 -8l4 -21q8 -6 34 11.5t26 29.5q0 4 -2 6q-2 12 -15 13q-31 0 -47 -39zM844 578q0 -27 24 -27 q25 0 23 39l-6 16l-15 10q-27 -4 -26 -38zM852 1167q0 -72 70 -90q23 -8 127 -8q152 0 241 160v6q2 20 -11.5 37.5t-33.5 17.5q0 -72 -74 -71q4 6 30 73.5t26 73.5q0 12 -16.5 26.5t-30.5 14.5q-43 0 -43 -35q0 -12 22 -39q29 -33 31 -39q-16 -6 -42 -47t-65 -41 q-33 0 -49 30t-28 58l-23 -6v-6q0 -18 25.5 -47t25.5 -43q0 -20 -37 -25q-47 -6 -53 -10v-27q-8 -2 -14 -2q-31 0 -39 37q-2 25 -6 60q-4 16 -11 16q-23 0 -22 -74zM891 1337l10 -16q6 -6 12 -6q8 0 45 26q18 14 37 15q47 -8 37 -8q31 0 31 18q0 31 -47 31q-125 0 -125 -60z M899 1468l14 15l5 12q12 -8 20 -2q14 4 20 4q12 0 33 -27q-12 0 -34.5 -4t-32.5 -4q-4 0 -25 6zM905 498q1 -27 19 -27q23 0 22 39l-10 18h-6q-25 0 -25 -30zM1210 -166q0 -35 105 -78l18 -2l15 8l2 9q0 23 -46 53.5t-71 30.5q-23 0 -23 -21zM1225 119q0 -57 35 -58 q16 0 14 41q-4 25 -6 50l8 20q0 6 -6 12q-45 -14 -45 -65zM1272 829q0 -29 18 -28q4 0 14.5 20.5t22.5 20.5q4 0 50 -45t79 -52q6 -6 19 -6q23 0 78 51.5t55 73.5q0 23 -42 119t-40 145q4 84 4 64q0 135 -74 135q-82 0 -82 -121q0 14 2 -47v-43q0 -16 -4 -48t-4 -48 q0 -4 4 -15.5t4 -17.5q-35 -68 -88 -125q-16 -18 -16 -33zM1303 586l6 -6q16 23 39 71l-11 4q-14 -6 -34 -69zM1309 16l2 -2l12 -6q33 29 35 33q0 4 -2 8q-47 -2 -47 -33zM1311 184q8 -16 18 -16t21 12l2 19l-4 16l-11 4q-8 -2 -26 -16v-19zM1313 1339q23 -18 22 -98l6 -4 q4 8 5 20q-1 73 -21 93q-6 0 -12 -11zM1335 119q0 -20 25 -21l12 6v39l-4 11q-33 -6 -33 -35zM1376 250q0 -6 4 -12h13q33 0 32 30l-4 17q-4 2 -8 2q-37 0 -37 -37zM1407 561q0 -35 51 -35q37 0 62 19q-2 6 -15 39q-8 23 -8 37q0 37 26.5 63.5t63.5 26.5q16 0 24.5 -16.5 t18.5 -16.5l12 10l5 8l16 15q27 -6 57 -33l49 -41l15 2q27 35 49 31q6 2 25.5 25.5t29.5 23.5q33 0 74 -62.5t41 -101.5q0 -59 -64 -59q0 -14 23 -40t23 -34q0 -14 -19 -21q-29 -6 -31 -10q-10 -20 -10 -33q0 -41 33 -41q20 0 68.5 44.5t48.5 64.5t-41 74q14 -2 22 -2 q18 0 39 24.5t27 24.5t15 -4t13 -4q14 0 19 26q2 25 0 49q-2 23 -4 37q0 16 6 37q25 -14 29 -54t18 -40q57 0 90 61q-55 14 -55 27l6 18q4 4 10 5q4 -2 19 -13q20 16 20 41q0 47 -57 47q0 29 20 29q8 0 26.5 -7t29.5 -7q33 0 63 73q29 63 29 101q0 27 -16.5 67.5t-16.5 44.5 q0 6 9 18.5t9 18.5q-6 12 -16 41q0 12 5 39t5 39q0 49 -22 106q-29 70 -70 70q8 0 -82 -22q-14 -4 -33 0q-27 2 -32 2q-16 0 -17 -29q0 -16 14.5 -43t14.5 -43q0 -2 -17 -61q-12 -94 -81 -127q-35 -16 -166 -33q-8 -2 -17.5 -17.5t-23.5 -15.5q-25 0 -76 15.5t-70.5 17.5 t-54.5 28q-43 33 -51 37q-45 0 -45 -30q0 -16 13 -33l13 -17q0 -12 -8 -20q23 -72 26 -88t3 -90q0 -49 37 -49q43 0 43 41q0 14 -19.5 45.5t-19.5 50.5l2 20q74 -74 74 -94q0 -31 -13 -61q-18 -39 -45 -39q-6 0 -26.5 8t-30.5 8q-35 0 -79 -33.5t-56 -33.5q-8 0 -24.5 4 t-24.5 4l-15 -4q23 -20 23 -45q0 -18 -17.5 -55.5t-17.5 -49.5zM1413 215q0 -35 31 -55q-16 -14 -29 -33q18 -94 51 -94h7l4 12q-16 18 -17 43q0 51 45 114.5t45 69.5l-6 21l-16 2q-45 2 -53 -27q-2 -4 -2 -67q-14 18 -46 35l-12 -7q-2 -8 -2 -14zM1489 4q0 -12 18 -18 q18 10 35 41l-10 26l-14 10q-29 -10 -29 -59zM1530 598q0 -27 43 -43l10 6l2 10q0 14 -13.5 36t-25.5 22q-16 0 -16 -31zM1569 131q0 27 22 27q29 0 29 -39q0 -23 -23 -23q-28 0 -28 35zM1608 1327q0 -16 11 -40.5t11 -31.5q0 -10 -8 -20q14 -10 78 -82q35 -39 112 -39 q78 0 156 21q113 33 113 84q0 41 -43 41q-18 0 -68 -70q-6 10 -23.5 13t-17.5 14q0 4 25.5 38.5t25.5 51.5q0 16 -14 24q-39 -84 -82 -84q-51 0 -80 84q-39 -14 -39 -41l7 -20q2 -4 34 -17q25 -10 25 -26q0 -33 -23 -33t-36 8l-5 2q-16 -14 -41 -33q18 61 19 62q0 14 -12 20 q-37 16 -47.5 24.5t-30.5 37.5q131 88 192 88q12 0 43 -7t45 -5q49 6 43 6q35 0 103 -88l24 8q4 18 4 31q0 63 -100 82l-143 8q-4 2 -18.5 9t-20.5 7q-39 0 -129 -46t-90 -81zM1638 565l11 -18l6 -2q6 0 18 24q-4 13 -10 31h-6q-18 -18 -19 -35zM1675 -20q0 -10 19 -11h14 q10 6 10 15q1 12 -24 24q-18 0 -19 -28zM1716 51l2 -4q0 -6 6 -6q8 0 21.5 7t13.5 15l-8 17l-8 2q-27 0 -27 -31zM1739 139q0 -31 22 -30q16 0 17 24l10 19q0 20 -25 20q-24 0 -24 -33zM1772 41l6 -16l20 8q8 12 21 16l-7 6l-4 2q-4 0 -36 -16zM1790 573l18 -8q14 0 39 -10 l8 16q-51 25 -55 25q-10 0 -10 -23zM2060 219l8 -4q29 0 29 25l-20 2q-16 0 -17 -23zM2097 383q0 -4 4 -10l17 4q8 4 6 12q-2 2 -6 10h-17q-4 -6 -4 -10v-6zM2120 494l10 -21q14 8 14 21l8 14l-16 10q-16 -10 -16 -24zM2122 -172q53 49 155 147q90 88 90 185q0 8 -12 73 q12 10 33 39q-2 16 -2 31q0 37 27 90q16 -53 16 -108q0 -232 -299 -465zM2154 356l11 -4l10 10l-4 11q-10 -2 -17 -17zM2173 434h16q6 2 6 17l-2 14l-8 -4zM2179 -289q53 43 160 131q82 74 115 166q14 12 24 12q6 0 10 -4q6 -16 2 -39l-2 -36v-11h6q4 0 14.5 -5t14.5 -5 q4 2 8 2q8 0 6 -6q-14 -53 -22 -59l-53 -35q0 49 -17 49q-20 0 -37 -31q-20 -39 -26 -43l6 -8l22 -6q6 8 25 24q14 0 14 -32q-18 -12 -34 -39q8 -12 28 -12v-11q-57 0 -264 -2zM2206 494l12 -13l6 19q-2 4 -10 4h-4zM2257 84q0 27 20 27q29 0 29 -17q-8 -14 -16 -24 q-19 0 -33 14zM2499 971q104 106 104 225q0 14 -7 42t-7 40q0 18 16 18q27 0 33 -22v-43q0 -86 -31 -158q-38 -90 -108 -102zM2548 154q0 18 16 28q25 0 25 -30v-19q-8 -14 -21 -14q-20 0 -20 35zM2564 20q0 18 12 37q0 6 -3 17.5t-3 17.5l10 17q23 -6 26 -11.5t3 -30 t14.5 -62.5t14.5 -56q0 -14 -15 -25q-39 0 -38 23q2 6 6 14q-27 37 -27 59zM2607 152q0 16 12 30q20 0 33 -12q2 -8 2 -16q0 -17 -31 -21q-16 4 -16 19zM2775 -100q0 -20 18 -21q23 0 23 33l-4 14q-6 8 -12 8q-25 1 -25 -34zM2957 -137q0 25 15 24h32q6 0 23 -16v-29 l-18 -24l2 -33q-29 6 -35 22q-2 8 -2 41q-4 6 -17 15z" />
<glyph unicode="_" d="M102 532v623q0 233 164 404.5t400 171.5t399.5 -171t163.5 -405v-623q0 -233 -165 -406t-398 -173t-398.5 173t-165.5 406zM305 727l266 260v524q-127 -47 -196.5 -144t-69.5 -212v-428zM311 471q43 -215 260 -301v559zM756 170q219 84 264 299l-264 260v-559zM756 987 l270 -264v432q0 117 -71.5 214t-198.5 144v-526z" />
<glyph unicode="`" d="M408 1896l47 172l469 -126l-47 -170z" />
<glyph unicode="a" d="M104 -18v206h150l283 1510h256l284 -1510h150v-206h-457v206h98l-32 181h-340l-33 -181h98v-206h-457zM535 575h262l-131 699z" />
<glyph unicode="b" d="M104 -18v206h179v1307h-179v207l574 -2q197 0 336 -119q149 -128 149 -331q0 -193 -172 -343q236 -166 236 -413q0 -236 -160 -379q-154 -135 -391 -135l-168 2h-404zM485 188h183q156 0 247 66q109 80 109 240q0 139 -121 225q-109 78 -262 78h-156v-609zM485 993h156 q129 12 217 74q100 72 100 180q0 164 -172 217q-92 31 -301 31v-502z" />
<glyph unicode="c" d="M143 496v696q0 238 143.5 388.5t379.5 150.5q86 0 180 -41q82 -35 121 -80v90h221v-537h-221q0 342 -301 342q-141 0 -221 -85t-80 -228v-696q0 -143 79.5 -231.5t221.5 -88.5q150 0 229 103q72 92 72 247h221q0 -254 -133 -409q-141 -164 -389 -164q-233 0 -378 153.5 t-145 389.5z" />
<glyph unicode="d" d="M98 -18v225h203v1270h-203v225h496q346 0 508 -270q131 -217 131 -588q0 -328 -123 -563q-156 -299 -459 -299h-553zM522 207h117q205 0 301 231q72 170 72 406q0 633 -406 633h-84v-1270z" />
<glyph unicode="e" d="M104 -18v225h162v1270h-162v225h1123v-445h-219v220h-521v-521h527v-223h-527v-526h521v219h219v-444h-1123z" />
<glyph unicode="f" d="M104 -18v225h162v1270h-162v225h1123v-445h-219v220h-521v-521h527v-223h-527v-526h156v-225h-539z" />
<glyph unicode="g" d="M111 487v713q0 215 149.5 373t366.5 158q162 0 293 -97v66h221v-531h-219q0 139 -78 234q-82 102 -217 102q-123 0 -209 -91t-86 -214v-713q0 -123 86 -212t209 -89q121 0 208 89.5t87 211.5v246h-285v223h584v-223h-80v-246q0 -215 -149.5 -370.5t-364.5 -155.5 t-365.5 155.5t-150.5 370.5z" />
<glyph unicode="h" d="M102 -18v206h154v1307h-154v207h504v-207h-145v-547h409v547h-145v207h504v-207h-154v-1307h154v-206h-504v206h145v553h-409v-553h145v-206h-504z" />
<glyph unicode="i" d="M190 -14v241h363v1231h-363v244h951v-244h-355v-1231h355v-241h-951z" />
<glyph unicode="j" d="M111 446l2 138h235l-2 -108v3q0 -123 51 -196q61 -88 185 -88q104 0 168 75q57 70 57 174v1014h-186v244h600v-244h-179v-1014q0 -207 -124 -346q-131 -145 -336 -145q-207 0 -340 143q-131 142 -131 344v6z" />
<glyph unicode="k" d="M102 -18v188h158v1343h-158v189h478v-189h-134v-653l420 653h-161v189h524v-189h-150l-342 -530l348 -813h144v-188h-524v188h167l-262 614l-164 -254v-360h134v-188h-478z" />
<glyph unicode="l" d="M104 -18v225h162v1270h-162v225h539v-225h-156v-1270h521v219h219v-444h-1123z" />
<glyph unicode="m" d="M98 -18v170h111v1378h-111v172h353l215 -1036l215 1040h352v-170h-111v-1378h111v-170h-393v170h112v1052l-202 -979h-168l-203 977v-1056h113v-170h-394z" />
<glyph unicode="n" d="M102 -18v188h156v1343h-156v189h402l381 -1131v942h-133v189h477v-189h-156v-1521h-190l-437 1298v-1120h158v-188h-502z" />
<glyph unicode="o" d="M102 541v608q0 238 164 410t400 172t399.5 -172.5t163.5 -409.5v-608q0 -238 -164 -413t-399 -175q-236 0 -400 175t-164 413zM340 541q0 -139 95 -242.5t231 -103.5q135 0 230 104t95 242v608q0 137 -95 237.5t-230 100.5t-230.5 -100.5t-95.5 -237.5v-608z" />
<glyph unicode="p" d="M104 -18v225h162v1270h-162v225h648q199 0 337 -143.5t138 -341.5q0 -201 -139.5 -343.5t-337.5 -142.5h-263v-524h156v-225h-539zM487 956h265h5q101 0 174 76q75 78 75 185q0 106 -75 183t-179 77h-265v-521z" />
<glyph unicode="q" d="M104 506v196q6 2 113 9v608q0 166 137 289q130 118 294 118h3q166 0 300 -120.5t134 -286.5v-965q0 -70 -28 -137q29 -18 53 -24h117v-207q-121 0 -174 10q-61 14 -119 57q-129 -104 -283 -104q-166 0 -297 119q-137 123 -137 286v152h-113zM426 354q0 -72 71.5 -131 t153.5 -59q64 0 123 39l-264 258q-33 33 -84 41v-148zM426 711q125 -14 250 -115q78 -61 198 -197v920q0 74 -70.5 133t-152.5 59t-153.5 -59t-71.5 -133v-608z" />
<glyph unicode="r" d="M104 -18v225h162v1270h-162v225h648q199 0 337 -143.5t138 -341.5q0 -174 -110.5 -310.5t-280.5 -167.5l223 -528h162v-223h-308l-315 743h-111v-524h156v-225h-539zM487 956h265h5q101 0 174 76q75 78 75 185q0 106 -75 183t-179 77h-265v-521z" />
<glyph unicode="s" d="M100 -10l2 530h217q2 -150 99.5 -247t247.5 -97q135 0 240.5 91t105.5 222q0 129 -121 218q-110 81 -243 81h-3q-205 0 -369 130q-174 139 -174 333q0 199 150.5 339.5t351.5 140.5q195 0 324 -86v55h221l-2 -479l-219 2q0 119 -98.5 200.5t-225.5 81.5q-109 0 -192 -71 q-90 -76 -90 -183q0 -102 112 -174q98 -63 211 -63q229 0 404 -148q182 -154 182 -377t-170 -379.5t-395 -156.5q-190 0 -344 113v-76h-222z" />
<glyph unicode="t" d="M104 1257v445h1123v-445h-221v220h-226v-1270h211v-225h-635v225h205v1270h-235v-220h-222z" />
<glyph unicode="u" d="M104 1473v225h469v-225h-127v-1061q0 -92 64.5 -164t157.5 -72q90 0 153 74q61 68 62 162v1061h-125v225h469v-225h-123l-2 -1063q0 -184 -123 -320q-129 -137 -311 -137q-184 0 -312.5 137t-128.5 322v1061h-123z" />
<glyph unicode="v" d="M104 1473v225h469v-225h-96l189 -1006l186 1006h-94v225h469v-225h-150l-274 -1481h-273l-276 1481h-150z" />
<glyph unicode="w" d="M104 1532v170h306v-170h-91l127 -1159l125 1159h-73v170h344v-170h-82l125 -1159l127 1159h-88v170h303v-170h-45l-172 -1559h-250l-94 813l-95 -813h-249l-172 1559h-46z" />
<glyph unicode="x" d="M102 -18v225h144l297 637l-295 633h-146v225h488v-225h-98l174 -371l172 371h-97v225h488v-225h-146l-297 -633l299 -637h144v-225h-488v225h101l-176 377l-177 -377h101v-225h-488z" />
<glyph unicode="y" d="M104 1477v225h469v-225h-98l191 -484l190 484h-98v225h469v-225h-133l-320 -818v-452h211v-225h-637v225h205v471l-317 799h-132z" />
<glyph unicode="z" d="M104 -12v176l834 1313h-608v-220h-219v445h1106v-201l-820 -1290h609v219h211l2 -442h-1115z" />
<glyph unicode="{" horiz-adv-x="1843" d="M193 1241q0 -182 151 -438q57 -98 313 -457q199 -281 265 -442q66 162 264 442q256 358 313 457q152 256 152 438q0 176 -92 311q-102 156 -269 156q-164 0 -264 -149q-90 -131 -90 -304h-31q0 172 -88 304q-100 149 -264 149q-166 0 -268 -156q-92 -135 -92 -311z" />
<glyph unicode="|" horiz-adv-x="4339" d="M102 268h76l15 -342l24 342h68l24 -338l17 338h73l-59 -504h-59l-29 320l-31 -320h-59zM168 1694q0 106 45 194q57 106 154 107q98 0 155 -107q45 -88 45 -194t-45 -195q-57 -106 -155 -106q-96 0 -154 106q-45 88 -45 195zM221 1694q0 -82 33 -152q41 -86 113 -86 q74 0 114 86q31 70 31 152t-31 149q-41 86 -114 86q-72 0 -113 -86q-33 -68 -33 -149zM256 1694q0 66 23 114q31 68 88 68q92 0 108 -145h-65q-6 61 -39 61q-41 0 -41 -100q0 -96 45 -97q29 0 35 58h63q-16 -141 -100 -142q-59 0 -90 66q-27 51 -27 117zM416 268h76l14 -342 l24 342h68l25 -338l16 338h74l-58 -504h-61l-29 320l-30 -320h-60zM492 584v649h86v-291h47v291h86v-649h-86v274h-47v-274h-86zM610 1401q84 297 84 481q0 74 -43 74q-23 0 -41 -21v84q39 35 74 35q100 0 100 -158q0 -127 -63 -411h70v-84h-181zM731 268h74l16 -342l23 342 h67l25 -338l16 338h74l-57 -504h-62l-28 320l-29 -320h-59zM758 584v649h86v-563h51v-86h-137zM823 1722q0 332 115 332q117 0 117 -336q0 -322 -111 -321q-121 0 -121 325zM913 834q0 254 95 253q94 1 94 -253t-90 -254q-98 0 -99 254zM913 1737q0 -209 27 -242 q25 37 25 219q0 199 -27 240q-25 -33 -25 -217zM991 842q0 -160 19 -176q16 20 16 165q0 158 -16 170q-18 -12 -19 -159zM1042 -188q0 47 48 47q49 0 49 -47t-49 -48q-47 0 -48 48zM1085 1722q0 332 117 332t117 -336q0 -322 -111 -321q-123 0 -123 325zM1135 584v649h75 v-174q23 31 52 31q61 0 61 -95v-411h-74v407q0 25 -18 25q-12 -6 -23 -17v-415h-73zM1165 -231v649h76v-174q25 31 53 30q59 0 60 -94v-411h-74v405q0 25 -18 25q-12 -4 -23 -15v-415h-74zM1178 1737q0 -209 26 -242q23 37 23 219q0 199 -25 240q-25 -33 -24 -217z M1348 1395v90q74 8 73 102q0 100 -73 103v71h6q66 -2 65 121q0 84 -49 84q-10 0 -22 -4v82q18 10 41 10q61 0 94 -59q27 -47 26 -113q0 -111 -61 -149q65 -48 65 -148q0 -180 -165 -190zM1350 1034l47 56q20 -6 37 -35q27 35 57 35q59 0 59 -89v-417h-73v409q0 23 -19 23 q-12 0 -20 -12v-420h-74v411q0 29 -14 39zM1395 -12v59q0 225 153 225h35v-372q1 -56 21 -72l-43 -64q-25 6 -41 43q-20 -43 -52 -43q-74 0 -73 224zM1470 -39q0 -123 27 -123q6 0 12 4v338q-39 -12 -39 -127v-92zM1589 831v60q0 197 94 196q93 0 93 -145q0 -133 -107 -160 q0 -41 14 -75q20 -45 58 -45q10 0 33 8v-84q-16 -6 -41 -6q-143 0 -144 251zM1612 217l45 55q41 -14 47 -71q53 72 72 71v-92q-27 -6 -49.5 -32.5t-22.5 -51.5v-327h-76v409q0 25 -16 39zM1636 1401v649h88v-293h45v293h86v-649h-86v272h-45v-272h-88zM1665 864q37 15 37 76 q0 49 -16 72q-20 -35 -21 -82v-66zM1792 1034l45 53q41 -14 47 -69q53 70 72 69v-92q-25 -4 -48.5 -30.5t-23.5 -53.5v-327h-74v411q0 25 -18 39zM1794 18q0 254 92 254q96 0 96 -254t-92 -254q-96 0 -96 254zM1870 25q0 -158 18 -175q19 21 19 166q0 158 -19 170 q-18 -14 -18 -161zM1898 1618v61q0 225 154 226h35v-373q0 -58 20 -72l-43 -63q-25 4 -41 43q-20 -43 -51 -43q-74 0 -74 221zM1974 1593q0 -125 27 -125q6 1 12 7v335q-39 -12 -39 -127v-90zM2007 872q0 121 55 215q66 111 179 111q98 0 153 -84q49 -72 49 -174 q0 -72 -28 -141q-37 -86 -99 -86q-43 0 -55 49q-27 -49 -70 -49q-82 0 -82 139q0 66 29 129q35 78 90 78q39 0 58 -41l4 26h65q-12 -57 -26 -114q-16 -70 -17 -115q0 -8 6 -20l9 -7q31 0 47 68q12 47 12 88q0 76 -31 123q-39 57 -108 57q-90 0 -142 -86q-43 -72 -43 -168 q0 -92 39 -157q47 -80 133 -80q76 0 150 84l26 -62q-82 -96 -180 -96q-111 0 -172 107q-51 86 -51 206zM2019 -170v588h74v-547q0 -41 25 -51l-58 -56q-41 12 -41 66zM2116 1849l45 56q41 -14 47 -72q53 72 71 72v-95q-27 -4 -49 -30.5t-22 -50.5v-328h-76v409q0 25 -16 39z M2138 43q0 231 115 231v144h74v-529q0 -45 18 -61l-43 -66q-31 8 -41 45q-25 -43 -49 -43q-74 0 -74 189v90zM2183 844q0 -57 25 -58q23 0 41 68q16 55 16 92q0 41 -24 41q-25 0 -43 -59q-14 -47 -15 -84zM2214 -35q0 -127 27 -127q8 0 12 6v338q-39 -12 -39 -114v-103z M2298 1649q0 256 92 256q94 0 94 -256q0 -254 -90 -254q-96 0 -96 254zM2357 -147q12 -16 31 -17q37 0 37 39q0 49 -33 142.5t-33 142.5q0 115 78 114q20 0 49 -16v-70q-14 12 -26 13q-31 0 -31 -39q0 -47 32.5 -140.5t32.5 -144.5q0 -113 -86 -113q-29 0 -51 13v76z M2374 1657q0 -158 18 -176q18 21 18 168q0 156 -18 170q-18 -14 -18 -162zM2507 803v59q0 225 151 225h37v-370q1 -58 19 -72l-43 -65q-23 6 -41 43q-20 -43 -52 -43q-72 0 -71 223zM2515 205v63h31q0 158 100 154h10v-72q-29 -2 -35 -31v-51h35v-63h-35v-398 q0 -133 -106 -133v82q33 -2 33 64v385h-33zM2523 1462v588h74v-549q-1 -41 24 -51l-57 -53q-41 12 -41 65zM2583 776q0 -123 24 -123q8 0 12 6v336q-37 -12 -36 -127v-92zM2642 1585v90q0 229 115 230v145h73v-528q1 -46 19 -62l-43 -65q-31 8 -41 45q-25 -43 -49 -43 q-74 0 -74 188zM2677 18q0 254 92 254q96 0 96 -254t-92 -254q-96 0 -96 254zM2718 1595q0 -127 26 -127q9 1 13 9v338q-39 -12 -39 -115v-105zM2726 834q0 254 92 253q96 1 96 -253t-92 -254q-96 0 -96 254zM2753 25q0 -158 18 -175q18 21 18 166q0 158 -18 170 q-18 -14 -18 -161zM2802 842q0 -160 18 -176q19 20 19 165q0 158 -19 170q-18 -12 -18 -159zM2882 219l47 55q23 -6 39 -36q27 37 57 36q59 0 59 -90v-415h-75v409q0 20 -19 21q-10 0 -18 -13v-417h-74v411q0 29 -16 39zM2951 647v586h74v-547q-1 -41 24 -51l-57 -55 q-41 12 -41 67zM2972 1401v649h88v-563h51v-86h-139zM3060 627q0 47 49 47q47 0 47 -47t-47 -47q-49 0 -49 47zM3113 205v22q27 27 92 123h21v-82h36v-63h-36v-342q0 -27 20 -27q4 0 16 6v-63q-20 -14 -38 -15q-72 0 -72 86v355h-39zM3129 1649q0 256 93 256q94 0 94 -256 q0 -254 -90 -254q-96 0 -97 254zM3174 805v72q0 213 107 213q16 0 35 -7v-75q-14 6 -19 6q-47 0 -47 -137v-76q0 -145 41 -146q16 0 25 11v-74q-18 -14 -37 -14q-104 0 -105 227zM3205 1657q0 -158 19 -176q18 21 18 168q0 156 -18 170q-18 -14 -19 -162zM3283 -147 q12 -16 31 -17q37 0 37 39q0 49 -34 142.5t-34 142.5q0 115 78 114q23 0 51 -16v-70q-14 12 -29 13q-29 0 -28 -39q0 -47 32.5 -140.5t32.5 -144.5q0 -113 -86 -113q-29 0 -51 13v76zM3336 834q0 254 92 253q97 1 97 -253t-93 -254q-96 0 -96 254zM3348 1401v649h76v-174 q25 31 54 31q59 0 59 -97v-409h-74v405q0 25 -18 25q-12 -6 -23 -16v-414h-74zM3412 842q0 -160 18 -176q19 20 19 165q0 158 -19 170q-18 -12 -18 -159zM3437 -188q0 47 47 47q49 0 49 -47t-49 -48q-47 0 -47 48zM3549 1036l43 54q33 -10 41 -39q25 39 57 39q35 0 54 -37 q29 37 59 37q57 0 57 -93v-413h-73v403q0 27 -19 27q-12 -4 -20 -15v-415h-74v405q0 25 -18 25q-12 -4 -19 -15v-415h-76v422q0 20 -12 30zM3551 -12v73q0 213 105 213q16 0 34 -8v-76q-14 6 -18 7q-45 0 -45 -136v-75q0 -145 39 -146q18 0 27 10v-73q-20 -14 -39 -15 q-102 0 -103 226zM3564 1849l47 56q20 -4 36 -35q27 35 58 35q61 0 61 -88v-416h-76v409q0 20 -18 21q-10 0 -18 -12v-418h-76v409q0 29 -14 39zM3711 18q0 254 94 254t94 -254t-90 -254q-98 0 -98 254zM3789 25q0 -158 18 -175q17 21 17 166q0 158 -17 170 q-18 -14 -18 -161zM3803 1649v57q0 199 94 199q93 -1 93 -148q0 -131 -107 -160q0 -41 16 -75q20 -45 56 -45q12 0 32 10v-84q-16 -6 -41 -6q-143 0 -143 252zM3881 1681q35 13 35 76q0 47 -17 70q-18 -35 -18 -82v-64zM3926 221l43 53q31 -10 39 -38q27 39 59 38 q33 0 52 -36q29 37 59 36q59 0 59 -92v-413h-73v403q0 27 -19 27q-12 -6 -20 -17v-413h-74v405q0 25 -18 25q-12 -6 -21 -17v-413h-74v421q0 20 -12 31zM4008 1849l45 56q41 -14 45 -72q55 72 72 72v-95q-25 -4 -48.5 -30.5t-23.5 -50.5v-328h-74v409q0 25 -16 39z" />
<glyph unicode="}" horiz-adv-x="1843" d="M199 504q0 168 45 289q39 104 147 254q147 182 295 364q228 287 236 346q8 -59 235 -346q147 -182 295 -364q109 -150 147 -254q45 -121 46 -289q0 -141 -82 -248q-90 -117 -228 -117q-137 0 -225 113q-82 104 -82 246h-49q0 -154 39 -314q43 -174 117 -293h-426 q156 246 155 607h-49q0 -141 -82 -246q-88 -113 -225 -113t-227 117q-82 106 -82 248z" />
<glyph unicode="~" horiz-adv-x="3139" d="M102 -291v2351h756q-12 -41 -39 -125q-33 -100 -47 -100q-12 0 -37 12q-33 -16 -33 -55q0 -31 40 -123t40 -135q0 -100 64 -100q0 -49 18 -50q39 0 109 15q78 14 102 31l-31 20q-14 12 -14 33q-2 2 72 2q14 0 153 -43q20 -6 70 -53q39 -37 119 -37q68 0 211 82t205 82 q4 -2 16 -50l147 -18l37 2q41 29 105 29q6 0 34.5 -10.5t47.5 -10.5q94 0 94 117q0 133 -82 248q-8 12 -2 41q-43 20 -86 121q-6 6 -21 10l-14 14q0 18 -10 51h506q-8 -16 -49 -246.5t-48 -275.5l11 -25q-4 2 45 3q68 0 88 -142q-25 33 -45 33q-14 0 -42 -8t-42 -8 q6 20 31.5 37.5t25.5 23.5q0 33 -20 33q-47 0 -80 -19q-43 -25 -43 -65q0 -41 30 -41q8 0 19 4l-31 -59l8 -17q35 -20 35 -33q0 -12 -43 -43q33 -10 33 -28q0 -10 -30.5 -35t-30.5 -49q0 -39 24 -39q12 0 37 24q16 -8 16 -18l-4 -10q-55 -31 -55 -92q0 -18 5 -55.5t7 -53.5 q0 -27 8 -27q39 0 105 154q57 131 67 203l13 -2q-14 -125 -78 -242q-20 -39 -109 -168q-55 -80 -55 -127q0 -68 148 -192q70 -57 206 -168q51 -43 115 -80q37 -18 74 -37q59 -35 59 -53q0 -37 -33 -37q39 0 -43 41t-110 41h-8l-4 -19h-11q-6 27 -32.5 69t-51.5 42l-12 -10 q-23 -37 -22.5 -139.5t-16.5 -143.5l4 -16h4q2 0 25.5 7t47.5 7t24 33q0 16 -15 22q-16 -14 -28 -24q-25 0 -25 16q0 94 39 182q10 -25 10 -94q0 -43 21 -43q12 0 36.5 3t36.5 3q6 0 15.5 27t17.5 27q14 0 23.5 -32t33.5 -36q-8 -55 -43 -55q-10 0 -20 16l-12 16l-13 3 l-16 -13q-8 -16 -35 -35q4 -49 35 -49q12 0 36.5 18.5t37.5 18.5q14 0 30 -14v-25h-30q-47 -29 -54 -28q-8 0 -20 6q-20 -8 -20 -21q0 -10 18 -18q10 0 29 18q66 -18 65 -49q-8 -27 -43 -27q-12 0 -12 -4q0 -33 59 -32q20 0 68 -33q-47 -29 -109 -29q-41 0 -88 14l-10 15 q12 10 27 37l-9 4q-18 -10 -53 -29l-2 -12q0 -6 31 -23h-96v33q0 47 -35 47q-14 0 -15 -16l5 -31h-25q-16 2 -23 -6q-4 -8 2 -27h-75q39 27 39 60q-6 6 -19 6q-10 0 -31.5 -12.5t-31.5 -12.5q-23 0 -23 27q0 16 41 27.5t45 19.5q27 27 66 84q35 0 35 -12q0 -20 -30 -48 t-32 -34l19 -11q6 2 24.5 13.5t30.5 11.5q14 0 35.5 -26.5t38.5 -26.5q29 0 38 26q-57 10 -112 68q8 8 16 33q-25 35 -24 78q0 25 9 70.5t9 70.5q0 215 -65 215q-8 0 -23.5 -4t-22.5 -4q-16 0 -20 14q-2 6 -2 14t2 19l2 29q0 8 -6 14q-27 25 -84 70v-9q0 -37 25.5 -106.5 t25.5 -104.5q0 -121 -8 -180q12 -16 22 -29q0 -25 -24 -24h-27q0 29 2 85t2 85q0 168 -71 250q-37 -57 -109 -142q-86 -100 -123 -120q-4 -12 -27.5 -43t-23.5 -45q0 -10 2 -15q61 35 121 123q33 49 98 145q-49 -221 -293 -354q-4 -2 -12 -2t-23.5 8.5t-23.5 8.5 q-8 -4 -11 -29t-14 -29q-14 -10 -47 -22q-174 -53 -235 -52q-18 -20 -137 -47q-104 -25 -150 -24q-12 0 -25 16l-26 -18q59 -41 127 -41q70 0 178 47l174 78q-37 -53 -145 -99q-100 -41 -170 -41q-10 -16 -56 -24q-33 -4 -65 -10q-47 -12 -70 -13q-43 0 -108.5 56.5 t-89.5 56.5q-18 0 -23 -39q-2 -27 -6 -55l-10 -2q-10 6 -25 24q0 25 12.5 68t12.5 65q0 25 -17.5 59t-40.5 34q-37 -10 -80 -125q-53 -137 -67 -158q10 121 90 283l-8 8q-14 -12 -25 -39q-16 -39 -18 -43q-8 -12 -42 -39t-34 -51l8 -2q6 2 8 2q16 0 17 -8l-8 -13 q-6 -6 -19 -18l-6 24q-74 -20 -74 -59q0 -20 60 -20v-11l-80 -2q-117 -2 -117 53q0 16 10 35l-6 4q-14 -6 -55 -55q-35 -41 -66 -41q-37 0 -66.5 52.5t-41.5 52.5q-10 0 -10 -13q0 -45 41 -86q-106 0 -347 -4zM268 -223q0 -31 23 -31q25 0 24 29q1 30 -26 30l-8 -2 q-12 -6 -13 -26zM446 -47v-8q0 -25 29 -25q23 18 23 31q0 14 -33 14zM496 -225q2 -25 18 -25q18 0 18 17q-6 12 -24 12zM508 -127q0 -4 29 -10q20 0 20 18q-4 10 -16 10q-6 0 -19.5 -7t-13.5 -11zM526 33q4 -43 21 -43q20 0 20 26q0 25 -22 25zM559 1255q0 -39 90 -223 l15 -8l2 23q0 6 -10.5 29.5t-10.5 35.5q0 6 17.5 50t17.5 69q0 14 -27.5 62t-38.5 48q-55 0 -55 -86zM561 -197l10 -4q18 8 52 53.5t61 59.5q4 8 4 18t-4 25l16 -2q55 0 68 53l-16 8q-119 0 -191 -211zM659 -174l9 -4q23 12 22 20l-2 4l-10 7q-18 0 -19 -27zM676 -242 q0 -8 6 -8q-14 0 47 17q0 27 33 69q4 43 35 55q23 10 30 25l-6 21q-14 8 -26 8q-33 0 -76 -74t-43 -113zM737 1128q-2 -49 8 -143q12 -102 13 -143q0 -18 28.5 -24.5t28.5 -12.5l-12 -25q-31 -14 -31 -43q0 -20 20.5 -62t36.5 -42q10 0 25.5 14.5t17.5 14.5q8 0 15 -5 q45 -55 114 -186q-39 -10 -38 -55q0 -41 67 -121l21 -8q14 8 14 22l-2 10q-6 4 -33 5v22q8 14 21 14q6 0 19 -12l13 -12q12 10 47 59q27 39 60 39q14 0 14 -35q-55 -23 -55 -69l6 -25q14 -10 25 -10q8 0 12 4l-6 25v18q41 20 45 23q18 14 18 43q35 0 37 -15 q-31 -66 -82 -203l4 -18l17 2q10 31 6 47q41 0 104 82q39 -2 64.5 28.5t40.5 30.5q10 0 27.5 -11t27.5 -11q43 0 74 14l61 39q14 -4 29.5 -31.5t26.5 -37.5q-10 0 -24.5 5t-23.5 5l-12 -6q-14 -49 -47 -138q-2 -4 -43 -18v-14q-4 -35 37 -105q10 6 18 6q25 0 35 -28l14 10 q4 8 31 51t27 45q0 27 -78 43q6 8 12 56q6 35 33 34q23 0 29 -39q8 -47 12 -51l27 -8q27 14 24 47q-2 18 -2 29q0 14 21 14q16 -6 18 -33q94 4 94 146q0 23 -6 41q4 0 11.5 -3t11.5 -3q4 4 20 24q-4 31 -31.5 54.5t-60.5 23.5q-94 0 -282.5 -17.5t-282.5 -17.5 q-12 0 -31.5 9.5t-30.5 9.5q-14 -18 -30 -33q-12 0 -27 8q-4 -4 -15.5 -23.5t-15.5 -19.5l-4 2q-55 12 -55 152q0 14 4 28q12 4 35 15q57 86 106 86q29 0 27 -15q-10 -23 -21 -28q-39 -14 -39 -45q8 -12 17 -13h8q96 111 115 111q8 0 24.5 -4t22.5 -4q14 0 14 20 q0 39 -43 39q-8 0 -23.5 -6t-23.5 -6q-23 0 -37 22.5t-14 44.5q0 74 86 134q16 27 16 108q0 16 -6 64q-2 41 2 65l-8 4q-12 -8 -36.5 -67.5t-53.5 -83.5q-53 -45 -150 -45q-33 0 -94 22.5t-82 22.5q-8 0 -18 -7l-17 -6q-90 47 -122 123h-9zM739 68q0 -25 21 -25q23 10 22 39 l-10 22h-4q-10 0 -29 -36zM801 41q8 4 45 27q31 20 31 34l-9 19l-8 2q-20 0 -39.5 -28t-19.5 -48v-6zM811 756l10 10q29 -29 29 -49l-6 -17l-13 -14q-12 12 -13 39t-7 31zM823 -8l4 -21q8 -6 34 11.5t26 29.5q0 4 -2 6q-2 12 -15 13q-31 0 -47 -39zM844 578q0 -27 24 -27 q25 0 23 39l-6 16l-15 10q-27 -4 -26 -38zM852 1167q0 -72 70 -90q23 -8 127 -8q152 0 241 160v6q2 20 -11.5 37.5t-33.5 17.5q0 -72 -74 -71q4 6 30 73.5t26 73.5q0 12 -16.5 26.5t-30.5 14.5q-43 0 -43 -35q0 -12 22 -39q29 -33 31 -39q-16 -6 -42 -47t-65 -41 q-33 0 -49 30t-28 58l-23 -6v-6q0 -18 25.5 -47t25.5 -43q0 -20 -37 -25q-47 -6 -53 -10v-27q-8 -2 -14 -2q-31 0 -39 37q-2 25 -6 60q-4 16 -11 16q-23 0 -22 -74zM891 1337l10 -16q6 -6 12 -6q8 0 45 26q18 14 37 15q47 -8 37 -8q31 0 31 18q0 31 -47 31q-125 0 -125 -60z M899 1468l14 15l5 12q12 -8 20 -2q14 4 20 4q12 0 33 -27q-12 0 -34.5 -4t-32.5 -4q-4 0 -25 6zM905 498q1 -27 19 -27q23 0 22 39l-10 18h-6q-25 0 -25 -30zM1210 -166q0 -35 105 -78l18 -2l15 8l2 9q0 23 -46 53.5t-71 30.5q-23 0 -23 -21zM1225 119q0 -57 35 -58 q16 0 14 41q-4 25 -6 50l8 20q0 6 -6 12q-45 -14 -45 -65zM1272 829q0 -29 18 -28q4 0 14.5 20.5t22.5 20.5q4 0 50 -45t79 -52q6 -6 19 -6q23 0 78 51.5t55 73.5q0 23 -42 119t-40 145q4 84 4 64q0 135 -74 135q-82 0 -82 -121q0 14 2 -47v-43q0 -16 -4 -48t-4 -48 q0 -4 4 -15.5t4 -17.5q-35 -68 -88 -125q-16 -18 -16 -33zM1303 586l6 -6q16 23 39 71l-11 4q-14 -6 -34 -69zM1309 16l2 -2l12 -6q33 29 35 33q0 4 -2 8q-47 -2 -47 -33zM1311 184q8 -16 18 -16t21 12l2 19l-4 16l-11 4q-8 -2 -26 -16v-19zM1313 1339q23 -18 22 -98l6 -4 q4 8 5 20q-1 73 -21 93q-6 0 -12 -11zM1335 119q0 -20 25 -21l12 6v39l-4 11q-33 -6 -33 -35zM1376 250q0 -6 4 -12h13q33 0 32 30l-4 17q-4 2 -8 2q-37 0 -37 -37zM1407 561q0 -35 51 -35q37 0 62 19q-2 6 -15 39q-8 23 -8 37q0 37 26.5 63.5t63.5 26.5q16 0 24.5 -16.5 t18.5 -16.5l12 10l5 8l16 15q27 -6 57 -33l49 -41l15 2q27 35 49 31q6 2 25.5 25.5t29.5 23.5q33 0 74 -62.5t41 -101.5q0 -59 -64 -59q0 -14 23 -40t23 -34q0 -14 -19 -21q-29 -6 -31 -10q-10 -20 -10 -33q0 -41 33 -41q20 0 68.5 44.5t48.5 64.5t-41 74q14 -2 22 -2 q18 0 39 24.5t27 24.5t15 -4t13 -4q14 0 19 26q2 25 0 49q-2 23 -4 37q0 16 6 37q25 -14 29 -54t18 -40q57 0 90 61q-55 14 -55 27l6 18q4 4 10 5q4 -2 19 -13q20 16 20 41q0 47 -57 47q0 29 20 29q8 0 26.5 -7t29.5 -7q33 0 63 73q29 63 29 101q0 27 -16.5 67.5t-16.5 44.5 q0 6 9 18.5t9 18.5q-6 12 -16 41q0 12 5 39t5 39q0 49 -22 106q-29 70 -70 70q8 0 -82 -22q-14 -4 -33 0q-27 2 -32 2q-16 0 -17 -29q0 -16 14.5 -43t14.5 -43q0 -2 -17 -61q-12 -94 -81 -127q-35 -16 -166 -33q-8 -2 -17.5 -17.5t-23.5 -15.5q-25 0 -76 15.5t-70.5 17.5 t-54.5 28q-43 33 -51 37q-45 0 -45 -30q0 -16 13 -33l13 -17q0 -12 -8 -20q23 -72 26 -88t3 -90q0 -49 37 -49q43 0 43 41q0 14 -19.5 45.5t-19.5 50.5l2 20q74 -74 74 -94q0 -31 -13 -61q-18 -39 -45 -39q-6 0 -26.5 8t-30.5 8q-35 0 -79 -33.5t-56 -33.5q-8 0 -24.5 4 t-24.5 4l-15 -4q23 -20 23 -45q0 -18 -17.5 -55.5t-17.5 -49.5zM1413 215q0 -35 31 -55q-16 -14 -29 -33q18 -94 51 -94h7l4 12q-16 18 -17 43q0 51 45 114.5t45 69.5l-6 21l-16 2q-45 2 -53 -27q-2 -4 -2 -67q-14 18 -46 35l-12 -7q-2 -8 -2 -14zM1489 4q0 -12 18 -18 q18 10 35 41l-10 26l-14 10q-29 -10 -29 -59zM1530 598q0 -27 43 -43l10 6l2 10q0 14 -13.5 36t-25.5 22q-16 0 -16 -31zM1569 131q0 27 22 27q29 0 29 -39q0 -23 -23 -23q-28 0 -28 35zM1608 1327q0 -16 11 -40.5t11 -31.5q0 -10 -8 -20q14 -10 78 -82q35 -39 112 -39 q78 0 156 21q113 33 113 84q0 41 -43 41q-18 0 -68 -70q-6 10 -23.5 13t-17.5 14q0 4 25.5 38.5t25.5 51.5q0 16 -14 24q-39 -84 -82 -84q-51 0 -80 84q-39 -14 -39 -41l7 -20q2 -4 34 -17q25 -10 25 -26q0 -33 -23 -33t-36 8l-5 2q-16 -14 -41 -33q18 61 19 62q0 14 -12 20 q-37 16 -47.5 24.5t-30.5 37.5q131 88 192 88q12 0 43 -7t45 -5q49 6 43 6q35 0 103 -88l24 8q4 18 4 31q0 63 -100 82l-143 8q-4 2 -18.5 9t-20.5 7q-39 0 -129 -46t-90 -81zM1638 565l11 -18l6 -2q6 0 18 24q-4 13 -10 31h-6q-18 -18 -19 -35zM1675 -20q0 -10 19 -11h14 q10 6 10 15q1 12 -24 24q-18 0 -19 -28zM1716 51l2 -4q0 -6 6 -6q8 0 21.5 7t13.5 15l-8 17l-8 2q-27 0 -27 -31zM1739 139q0 -31 22 -30q16 0 17 24l10 19q0 20 -25 20q-24 0 -24 -33zM1772 41l6 -16l20 8q8 12 21 16l-7 6l-4 2q-4 0 -36 -16zM1790 573l18 -8q14 0 39 -10 l8 16q-51 25 -55 25q-10 0 -10 -23zM2060 219l8 -4q29 0 29 25l-20 2q-16 0 -17 -23zM2097 383q0 -4 4 -10l17 4q8 4 6 12q-2 2 -6 10h-17q-4 -6 -4 -10v-6zM2120 494l10 -21q14 8 14 21l8 14l-16 10q-16 -10 -16 -24zM2122 -172q53 49 155 147q90 88 90 185q0 8 -12 73 q12 10 33 39q-2 16 -2 31q0 37 27 90q16 -53 16 -108q0 -232 -299 -465zM2154 356l11 -4l10 10l-4 11q-10 -2 -17 -17zM2173 434h16q6 2 6 17l-2 14l-8 -4zM2179 -289q53 43 160 131q82 74 115 166q14 12 24 12q6 0 10 -4q6 -16 2 -39l-2 -36v-11h6q4 0 14.5 -5t14.5 -5 q4 2 8 2q8 0 6 -6q-14 -53 -22 -59l-53 -35q0 49 -17 49q-20 0 -37 -31q-20 -39 -26 -43l6 -8l22 -6q6 8 25 24q14 0 14 -32q-18 -12 -34 -39q8 -12 28 -12v-11q-57 0 -264 -2zM2206 494l12 -13l6 19q-2 4 -10 4h-4zM2257 84q0 27 20 27q29 0 29 -17q-8 -14 -16 -24 q-19 0 -33 14zM2499 971q104 106 104 225q0 14 -7 42t-7 40q0 18 16 18q27 0 33 -22v-43q0 -86 -31 -158q-38 -90 -108 -102zM2548 154q0 18 16 28q25 0 25 -30v-19q-8 -14 -21 -14q-20 0 -20 35zM2564 20q0 18 12 37q0 6 -3 17.5t-3 17.5l10 17q23 -6 26 -11.5t3 -30 t14.5 -62.5t14.5 -56q0 -14 -15 -25q-39 0 -38 23q2 6 6 14q-27 37 -27 59zM2607 152q0 16 12 30q20 0 33 -12q2 -8 2 -16q0 -17 -31 -21q-16 4 -16 19zM2775 -100q0 -20 18 -21q23 0 23 33l-4 14q-6 8 -12 8q-25 1 -25 -34zM2957 -137q0 25 15 24h32q6 0 23 -16v-29 l-18 -24l2 -33q-29 6 -35 22q-2 8 -2 41q-4 6 -17 15z" />
<glyph unicode="&#xa0;" />
<glyph unicode="&#xa1;" d="M524 1417v281h285v-281h-285zM532 -10v719l46 471h180l47 -471v-719h-273z" />
<glyph unicode="&#xa2;" d="M221 610v469q0 156 97.5 280t246.5 159v180h195v-178q29 -6 155 -88v57h195v-424h-195q-4 186 -155 248v-938q150 63 155 250h195q-4 -170 -96 -293q-94 -129 -254 -162v-178h-195v178q-150 35 -247 159t-97 281zM416 610q0 -76 41 -139t108 -94v934 q-68 -31 -108.5 -94.5t-40.5 -137.5v-469z" />
<glyph unicode="&#xa3;" d="M106 735v226h199v374q0 162 111.5 279t271.5 117q176 0 280.5 -124t104.5 -300h-221q0 84 -37 137q-45 61 -127 61q-68 0 -116 -50t-48 -120v-374h332v-226h-332q0 -31 4 -117t4 -135q0 -182 -43 -274h515v221h221v-444q-156 0 -557 -2q-354 -2 -557 -2v227q78 -4 136 41 t58 123v362h-199z" />
<glyph unicode="&#xa4;" d="M100 530v224h144v172h-144v223h144v76q0 207 144 355.5t349 148.5q150 0 273 -84v55h219l2 -504h-221q0 129 -70 215q-76 92 -203 92q-272 0 -272 -354h256v-223h-256v-172h256v-224h-256v-69q0 -115 80 -197t192 -82q123 0 201 94q72 88 72 213h221q0 -221 -135 -372 q-139 -160 -359 -160q-205 0 -349 148.5t-144 355.5v69h-144z" />
<glyph unicode="&#xa5;" d="M104 1501v207h457v-207h-106l211 -528l208 528h-104v207h457v-207h-133l-328 -835h207v-205h-207v-266h315v-207h-829v207h309v266h-219v205h219v18l-162 410q0 -2 -163 407h-132z" />
<glyph unicode="&#xa8;" d="M305 1886q0 45 33 78t78 33q47 0 79.5 -33t32.5 -78q0 -47 -32.5 -79.5t-79.5 -32.5q-45 0 -78 32.5t-33 79.5zM803 1886q0 45 32.5 78t79.5 33q45 0 78 -33t33 -78q0 -47 -32.5 -79.5t-78.5 -32.5q-47 0 -79.5 32.5t-32.5 79.5z" />
<glyph unicode="&#xab;" d="M98 524l516 518l127 -127l-391 -391l391 -391l-127 -125zM590 524l516 518l127 -127l-391 -391l391 -391l-127 -125z" />
<glyph unicode="&#xad;" d="M336 733v223h659v-223h-659z" />
<glyph unicode="&#xb0;" d="M356 1389q0 127 91.5 219t218.5 92t218 -92t91 -219q0 -129 -91 -220.5t-218 -91.5t-218.5 91.5t-91.5 220.5zM535 1389q0 -55 38.5 -93.5t92.5 -38.5q53 0 92 38t39 94q0 53 -39 92t-92 39t-92 -39t-39 -92z" />
<glyph unicode="&#xb4;" d="M408 1942l469 126l47 -172l-469 -124z" />
<glyph unicode="&#xb7;" d="M514 692v315h305v-315h-305z" />
<glyph unicode="&#xb8;" d="M565 164h201v-422h-201v422z" />
<glyph unicode="&#xbb;" d="M98 133l127 -125l516 516l-516 518l-127 -127l391 -391zM590 133l127 -125l516 516l-516 518l-127 -127l391 -391z" />
<glyph unicode="&#xbf;" d="M106 522q0 186 123 326.5t326 187.5v170h219l2 -383h-110q-131 0 -232 -82q-109 -88 -108 -219q0 -133 104.5 -220t235.5 -87q158 0 249 98q82 88 91 238h219q-10 -238 -162 -397q-158 -164 -397 -164q-227 0 -393.5 155.5t-166.5 376.5zM528 1448v283h275v-283h-275z " />
<glyph unicode="&#xc0;" d="M104 -18v206h150l283 1510h256l284 -1510h150v-206h-457v206h98l-32 181h-340l-33 -181h98v-206h-457zM408 1896l47 172l469 -126l-47 -170zM535 575h262l-131 699z" />
<glyph unicode="&#xc1;" d="M104 -18v206h150l283 1510h256l284 -1510h150v-206h-457v206h98l-32 181h-340l-33 -181h98v-206h-457zM408 1942l469 126l47 -172l-469 -124zM535 575h262l-131 699z" />
<glyph unicode="&#xc2;" d="M104 -18v206h150l283 1510h256l284 -1510h150v-206h-457v206h98l-32 181h-340l-33 -181h98v-206h-457zM391 1931l275 146l274 -146l-84 -157l-190 102l-191 -102zM535 575h262l-131 699z" />
<glyph unicode="&#xc3;" d="M104 -18v206h150l283 1510h256l284 -1510h150v-206h-457v206h98l-32 181h-340l-33 -181h98v-206h-457zM379 1817q0 98 59.5 161.5t145.5 63.5q55 0 110 -34l54 -34q27 0 26 47h178q0 -98 -59 -161.5t-145 -63.5q-55 0 -110 34l-54 34q-27 0 -27 -47h-178zM535 575h262 l-131 699z" />
<glyph unicode="&#xc4;" d="M104 -18v206h150l283 1510h256l284 -1510h150v-206h-457v206h98l-32 181h-340l-33 -181h98v-206h-457zM305 1886q0 45 33 78t78 33q47 0 79.5 -33t32.5 -78q0 -47 -32.5 -79.5t-79.5 -32.5q-45 0 -78 32.5t-33 79.5zM535 575h262l-131 699zM803 1886q0 45 32.5 78 t79.5 33q45 0 78 -33t33 -78q0 -47 -32.5 -79.5t-78.5 -32.5q-47 0 -79.5 32.5t-32.5 79.5z" />
<glyph unicode="&#xc5;" d="M104 -18v206h150l278 1493q-88 66 -88 179q0 90 65.5 155.5t156.5 65.5q92 0 156.5 -65.5t64.5 -155.5q0 -113 -90 -181l280 -1491h150v-206h-457v206h98l-32 181h-340l-33 -181h98v-206h-457zM535 575h262l-131 699zM580 1860q0 -35 25.5 -60.5t60.5 -25.5t60.5 25.5 t25.5 60.5t-26 59.5t-60 24.5q-35 0 -60.5 -25t-25.5 -59z" />
<glyph unicode="&#xc6;" d="M100 -12v186h152l289 1524h77v4h613v-414h-187v225h-196v-575h231v-186h-231v-582h196v225h187v-413h-572v397h-180l-37 -205h103v-186h-445zM516 567h143v762z" />
<glyph unicode="&#xc7;" d="M143 496v696q0 238 143.5 388.5t379.5 150.5q86 0 180 -41q82 -35 121 -80v90h221v-537h-221q0 342 -301 342q-141 0 -221 -85t-80 -228v-696q0 -143 79.5 -231.5t221.5 -88.5q150 0 229 103q72 92 72 247h221q0 -254 -133 -409q-141 -164 -389 -164q-233 0 -378 153.5 t-145 389.5zM565 164h201v-422h-201v422z" />
<glyph unicode="&#xc8;" d="M104 -18v225h162v1270h-162v225h1123v-445h-219v220h-521v-521h527v-223h-527v-526h521v219h219v-444h-1123zM408 1896l47 172l469 -126l-47 -170z" />
<glyph unicode="&#xc9;" d="M104 -18v225h162v1270h-162v225h1123v-445h-219v220h-521v-521h527v-223h-527v-526h521v219h219v-444h-1123zM408 1942l469 126l47 -172l-469 -124z" />
<glyph unicode="&#xca;" d="M104 -18v225h162v1270h-162v225h1123v-445h-219v220h-521v-521h527v-223h-527v-526h521v219h219v-444h-1123zM391 1931l275 146l274 -146l-84 -157l-190 102l-191 -102z" />
<glyph unicode="&#xcb;" d="M104 -18v225h162v1270h-162v225h1123v-445h-219v220h-521v-521h527v-223h-527v-526h521v219h219v-444h-1123zM305 1886q0 45 33 78t78 33q47 0 79.5 -33t32.5 -78q0 -47 -32.5 -79.5t-79.5 -32.5q-45 0 -78 32.5t-33 79.5zM803 1886q0 45 32.5 78t79.5 33q45 0 78 -33 t33 -78q0 -47 -32.5 -79.5t-78.5 -32.5q-47 0 -79.5 32.5t-32.5 79.5z" />
<glyph unicode="&#xcc;" d="M190 -14v241h363v1231h-363v244h951v-244h-355v-1231h355v-241h-951zM408 1896l47 172l469 -126l-47 -170z" />
<glyph unicode="&#xcd;" d="M190 -14v241h363v1231h-363v244h951v-244h-355v-1231h355v-241h-951zM408 1942l469 126l47 -172l-469 -124z" />
<glyph unicode="&#xce;" d="M190 -14v241h363v1231h-363v244h951v-244h-355v-1231h355v-241h-951zM391 1931l275 146l274 -146l-84 -157l-190 102l-191 -102z" />
<glyph unicode="&#xcf;" d="M190 -14v241h363v1231h-363v244h951v-244h-355v-1231h355v-241h-951zM305 1886q0 45 33 78t78 33q47 0 79.5 -33t32.5 -78q0 -47 -32.5 -79.5t-79.5 -32.5q-45 0 -78 32.5t-33 79.5zM803 1886q0 45 32.5 78t79.5 33q45 0 78 -33t33 -78q0 -47 -32.5 -79.5t-78.5 -32.5 q-47 0 -79.5 32.5t-32.5 79.5z" />
<glyph unicode="&#xd0;" d="M98 -18v225h203v526h-199v223h199v521h-203v225h496q346 0 508 -270q131 -217 131 -588q0 -328 -123 -563q-156 -299 -459 -299h-553zM522 207h117q205 -2 301 231q72 170 72 406q0 391 -156 545q-94 90 -213 90q-23 0 -37 -2h-84v-521h240v-223h-240v-526z" />
<glyph unicode="&#xd1;" d="M102 -18v188h156v1343h-156v189h402l381 -1131v942h-133v189h477v-189h-156v-1521h-190l-437 1298v-1120h158v-188h-502zM379 1817q0 98 59.5 161.5t145.5 63.5q55 0 110 -34l54 -34q27 0 26 47h178q0 -98 -59 -161.5t-145 -63.5q-55 0 -110 34l-54 34q-27 0 -27 -47 h-178z" />
<glyph unicode="&#xd2;" d="M102 541v608q0 238 164 410t400 172t399.5 -172.5t163.5 -409.5v-608q0 -238 -164 -413t-399 -175q-236 0 -400 175t-164 413zM340 541q0 -139 95 -242.5t231 -103.5q135 0 230 104t95 242v608q0 137 -95 237.5t-230 100.5t-230.5 -100.5t-95.5 -237.5v-608zM408 1896 l47 172l469 -126l-47 -170z" />
<glyph unicode="&#xd3;" d="M102 541v608q0 238 164 410t400 172t399.5 -172.5t163.5 -409.5v-608q0 -238 -164 -413t-399 -175q-236 0 -400 175t-164 413zM340 541q0 -139 95 -242.5t231 -103.5q135 0 230 104t95 242v608q0 137 -95 237.5t-230 100.5t-230.5 -100.5t-95.5 -237.5v-608zM408 1942 l469 126l47 -172l-469 -124z" />
<glyph unicode="&#xd4;" d="M102 541v608q0 238 164 410t400 172t399.5 -172.5t163.5 -409.5v-608q0 -238 -164 -413t-399 -175q-236 0 -400 175t-164 413zM340 541q0 -139 95 -242.5t231 -103.5q135 0 230 104t95 242v608q0 137 -95 237.5t-230 100.5t-230.5 -100.5t-95.5 -237.5v-608zM391 1931 l275 146l274 -146l-84 -157l-190 102l-191 -102z" />
<glyph unicode="&#xd5;" d="M102 541v608q0 238 164 410t400 172t399.5 -172.5t163.5 -409.5v-608q0 -238 -164 -413t-399 -175q-236 0 -400 175t-164 413zM340 541q0 -139 95 -242.5t231 -103.5q135 0 230 104t95 242v608q0 137 -95 237.5t-230 100.5t-230.5 -100.5t-95.5 -237.5v-608z" />
<glyph unicode="&#xd6;" d="M102 541v608q0 238 164 410t400 172t399.5 -172.5t163.5 -409.5v-608q0 -238 -164 -413t-399 -175q-236 0 -400 175t-164 413zM305 1886q0 45 33 78t78 33q47 0 79.5 -33t32.5 -78q0 -47 -32.5 -79.5t-79.5 -32.5q-45 0 -78 32.5t-33 79.5zM340 541q0 -139 95 -242.5 t231 -103.5q135 0 230 104t95 242v608q0 137 -95 237.5t-230 100.5t-230.5 -100.5t-95.5 -237.5v-608zM803 1886q0 45 32.5 78t79.5 33q45 0 78 -33t33 -78q0 -47 -32.5 -79.5t-78.5 -32.5q-47 0 -79.5 32.5t-32.5 79.5z" />
<glyph unicode="&#xd8;" d="M96 -14l125 235q-70 121 -69 262v721q0 215 150.5 367.5t363.5 152.5q164 0 299 -96l39 76h231l-125 -238q70 -121 70 -262v-721q0 -217 -150.5 -369.5t-363.5 -152.5q-166 0 -299 98l-39 -73h-232zM354 475l512 969q-85 76 -200 76q-129 0 -220.5 -93.5t-91.5 -222.5 v-729zM463 244q88 -76 203 -76q127 0 219 92t92 223v731z" />
<glyph unicode="&#xd9;" d="M104 1473v225h469v-225h-127v-1061q0 -92 64.5 -164t157.5 -72q90 0 153 74q61 68 62 162v1061h-125v225h469v-225h-123l-2 -1063q0 -184 -123 -320q-129 -137 -311 -137q-184 0 -312.5 137t-128.5 322v1061h-123zM408 1896l47 172l469 -126l-47 -170z" />
<glyph unicode="&#xda;" d="M104 1473v225h469v-225h-127v-1061q0 -92 64.5 -164t157.5 -72q90 0 153 74q61 68 62 162v1061h-125v225h469v-225h-123l-2 -1063q0 -184 -123 -320q-129 -137 -311 -137q-184 0 -312.5 137t-128.5 322v1061h-123zM408 1942l469 126l47 -172l-469 -124z" />
<glyph unicode="&#xdb;" d="M104 1473v225h469v-225h-127v-1061q0 -92 64.5 -164t157.5 -72q90 0 153 74q61 68 62 162v1061h-125v225h469v-225h-123l-2 -1063q0 -184 -123 -320q-129 -137 -311 -137q-184 0 -312.5 137t-128.5 322v1061h-123zM391 1931l275 146l274 -146l-84 -157l-190 102 l-191 -102z" />
<glyph unicode="&#xdc;" d="M104 1473v225h469v-225h-127v-1061q0 -92 64.5 -164t157.5 -72q90 0 153 74q61 68 62 162v1061h-125v225h469v-225h-123l-2 -1063q0 -184 -123 -320q-129 -137 -311 -137q-184 0 -312.5 137t-128.5 322v1061h-123zM305 1886q0 45 33 78t78 33q47 0 79.5 -33t32.5 -78 q0 -47 -32.5 -79.5t-79.5 -32.5q-45 0 -78 32.5t-33 79.5zM803 1886q0 45 32.5 78t79.5 33q45 0 78 -33t33 -78q0 -47 -32.5 -79.5t-78.5 -32.5q-47 0 -79.5 32.5t-32.5 79.5z" />
<glyph unicode="&#xdd;" d="M104 1477v225h469v-225h-98l191 -484l190 484h-98v225h469v-225h-133l-320 -818v-452h211v-225h-637v225h205v471l-317 799h-132zM408 1942l469 126l47 -172l-469 -124z" />
<glyph unicode="&#xde;" d="M104 -18v225h162v1270h-162v225h539v-225h-156v-148h265q199 0 337 -142.5t138 -342.5q0 -199 -139.5 -342.5t-337.5 -141.5h-263v-153h156v-225h-539zM487 586l265 -2q104 0 179 76.5t75 183.5q0 106 -75 184t-179 78h-265v-520z" />
<glyph unicode="&#xdf;" horiz-adv-x="2662" d="M100 -10l2 530h217q2 -150 99.5 -247t247.5 -97q135 0 240.5 91t105.5 222q0 129 -121 218q-111 82 -246 81q-205 0 -369 130q-174 139 -174 333q0 199 150.5 339.5t351.5 140.5q195 0 324 -86v55h221l-2 -479l-219 2q0 119 -98.5 200.5t-225.5 81.5q-109 0 -192 -71 q-90 -76 -90 -183q0 -102 112 -174q98 -63 211 -63q229 0 404 -148q182 -154 182 -377t-170 -379.5t-395 -156.5q-190 0 -344 113v-76h-222zM1431 -10l2 530h217q2 -150 99.5 -247t247.5 -97q135 0 240.5 91t105.5 222q0 129 -121 218q-111 82 -246 81q-205 0 -369 130 q-174 139 -174 333q0 199 150.5 339.5t351.5 140.5q195 0 324 -86v55h221l-2 -479l-219 2q0 119 -98.5 200.5t-225.5 81.5q-109 0 -192 -71q-90 -76 -90 -183q0 -102 112 -174q98 -63 211 -63q229 0 404 -148q182 -154 182 -377t-170 -379.5t-395 -156.5q-190 0 -344 113 v-76h-222z" />
<glyph unicode="&#xe0;" d="M104 -18v206h150l283 1510h256l284 -1510h150v-206h-457v206h98l-32 181h-340l-33 -181h98v-206h-457zM408 1896l47 172l469 -126l-47 -170zM535 575h262l-131 699z" />
<glyph unicode="&#xe1;" d="M104 -18v206h150l283 1510h256l284 -1510h150v-206h-457v206h98l-32 181h-340l-33 -181h98v-206h-457zM408 1942l469 126l47 -172l-469 -124zM535 575h262l-131 699z" />
<glyph unicode="&#xe2;" d="M104 -18v206h150l283 1510h256l284 -1510h150v-206h-457v206h98l-32 181h-340l-33 -181h98v-206h-457zM391 1931l275 146l274 -146l-84 -157l-190 102l-191 -102zM535 575h262l-131 699z" />
<glyph unicode="&#xe3;" d="M104 -18v206h150l283 1510h256l284 -1510h150v-206h-457v206h98l-32 181h-340l-33 -181h98v-206h-457zM379 1817q0 98 59.5 161.5t145.5 63.5q55 0 110 -34l54 -34q27 0 26 47h178q0 -98 -59 -161.5t-145 -63.5q-55 0 -110 34l-54 34q-27 0 -27 -47h-178zM535 575h262 l-131 699z" />
<glyph unicode="&#xe4;" d="M104 -18v206h150l283 1510h256l284 -1510h150v-206h-457v206h98l-32 181h-340l-33 -181h98v-206h-457zM305 1886q0 45 33 78t78 33q47 0 79.5 -33t32.5 -78q0 -47 -32.5 -79.5t-79.5 -32.5q-45 0 -78 32.5t-33 79.5zM535 575h262l-131 699zM803 1886q0 45 32.5 78 t79.5 33q45 0 78 -33t33 -78q0 -47 -32.5 -79.5t-78.5 -32.5q-47 0 -79.5 32.5t-32.5 79.5z" />
<glyph unicode="&#xe5;" d="M104 -18v206h150l278 1493q-88 66 -88 179q0 90 64.5 155.5t157.5 65.5q92 0 156.5 -65.5t64.5 -155.5q0 -113 -90 -181l280 -1491h150v-206h-457v206h98l-32 181h-340l-33 -181h98v-206h-457zM535 575h262l-131 699zM580 1860q0 -37 25.5 -61.5t60.5 -24.5t60.5 25.5 t25.5 60.5t-26 59.5t-60 24.5q-35 0 -60.5 -25t-25.5 -59z" />
<glyph unicode="&#xe6;" d="M100 -12v186h152l289 1524h77v4h613v-414h-187v225h-196v-575h231v-186h-231v-582h196v225h187v-413h-572v397h-180l-37 -205h103v-186h-445zM516 567h143v762z" />
<glyph unicode="&#xe7;" d="M143 496v696q0 238 143.5 388.5t379.5 150.5q86 0 180 -41q82 -35 121 -80v90h221v-537h-221q0 342 -301 342q-141 0 -221 -85t-80 -228v-696q0 -143 79.5 -231.5t221.5 -88.5q150 0 229 103q72 92 72 247h221q0 -254 -133 -409q-141 -164 -389 -164q-233 0 -378 153.5 t-145 389.5zM565 164h201v-422h-201v422z" />
<glyph unicode="&#xe8;" d="M104 -18v225h162v1270h-162v225h1123v-445h-219v220h-521v-521h527v-223h-527v-526h521v219h219v-444h-1123zM408 1896l47 172l469 -126l-47 -170z" />
<glyph unicode="&#xe9;" d="M104 -18v225h162v1270h-162v225h1123v-445h-219v220h-521v-521h527v-223h-527v-526h521v219h219v-444h-1123zM408 1942l469 126l47 -172l-469 -124z" />
<glyph unicode="&#xea;" d="M104 -18v225h162v1270h-162v225h1123v-445h-219v220h-521v-521h527v-223h-527v-526h521v219h219v-444h-1123zM391 1931l275 146l274 -146l-84 -157l-190 102l-191 -102z" />
<glyph unicode="&#xeb;" d="M104 -18v225h162v1270h-162v225h1123v-445h-219v220h-521v-521h527v-223h-527v-526h521v219h219v-444h-1123zM305 1886q0 45 33 78t78 33q47 0 79.5 -33t32.5 -78q0 -47 -32.5 -79.5t-79.5 -32.5q-45 0 -78 32.5t-33 79.5zM803 1886q0 45 32.5 78t79.5 33q45 0 78 -33 t33 -78q0 -47 -32.5 -79.5t-78.5 -32.5q-47 0 -79.5 32.5t-32.5 79.5z" />
<glyph unicode="&#xec;" d="M190 -14v241h363v1231h-363v244h951v-244h-355v-1231h355v-241h-951zM408 1896l47 172l469 -126l-47 -170z" />
<glyph unicode="&#xed;" d="M190 -14v241h363v1231h-363v244h951v-244h-355v-1231h355v-241h-951zM408 1942l469 126l47 -172l-469 -124z" />
<glyph unicode="&#xee;" d="M190 -14v241h363v1231h-363v244h951v-244h-355v-1231h355v-241h-951zM391 1931l275 146l274 -146l-84 -157l-190 102l-191 -102z" />
<glyph unicode="&#xef;" d="M190 -14v241h363v1231h-363v244h951v-244h-355v-1231h355v-241h-951zM305 1886q0 45 33 78t78 33q47 0 79.5 -33t32.5 -78q0 -47 -32.5 -79.5t-79.5 -32.5q-45 0 -78 32.5t-33 79.5zM803 1886q0 45 32.5 78t79.5 33q45 0 78 -33t33 -78q0 -47 -32.5 -79.5t-78.5 -32.5 q-47 0 -79.5 32.5t-32.5 79.5z" />
<glyph unicode="&#xf0;" d="M98 -18v225h203v526h-199v223h199v521h-203v225h496q346 0 508 -270q131 -217 131 -588q0 -328 -123 -563q-156 -299 -459 -299h-553zM522 207h117q205 -2 301 231q72 170 72 406q0 391 -156 545q-94 90 -213 90q-23 0 -37 -2h-84v-521h240v-223h-240v-526z" />
<glyph unicode="&#xf1;" d="M102 -18v188h156v1343h-156v189h402l381 -1131v942h-133v189h477v-189h-156v-1521h-190l-437 1298v-1120h158v-188h-502zM379 1817q0 98 59.5 161.5t145.5 63.5q55 0 110 -34l54 -34q27 0 26 47h178q0 -98 -59 -161.5t-145 -63.5q-55 0 -110 34l-54 34q-27 0 -27 -47 h-178z" />
<glyph unicode="&#xf2;" d="M102 541v608q0 238 164 410t400 172t399.5 -172.5t163.5 -409.5v-608q0 -238 -164 -413t-399 -175q-236 0 -400 175t-164 413zM340 541q0 -139 95 -242.5t231 -103.5q135 0 230 104t95 242v608q0 137 -95 237.5t-230 100.5t-230.5 -100.5t-95.5 -237.5v-608zM408 1896 l47 172l469 -126l-47 -170z" />
<glyph unicode="&#xf3;" d="M102 541v608q0 238 164 410t400 172t399.5 -172.5t163.5 -409.5v-608q0 -238 -164 -413t-399 -175q-236 0 -400 175t-164 413zM340 541q0 -139 95 -242.5t231 -103.5q135 0 230 104t95 242v608q0 137 -95 237.5t-230 100.5t-230.5 -100.5t-95.5 -237.5v-608zM408 1942 l469 126l47 -172l-469 -124z" />
<glyph unicode="&#xf4;" d="M102 541v608q0 238 164 410t400 172t399.5 -172.5t163.5 -409.5v-608q0 -238 -164 -413t-399 -175q-236 0 -400 175t-164 413zM340 541q0 -139 95 -242.5t231 -103.5q135 0 230 104t95 242v608q0 137 -95 237.5t-230 100.5t-230.5 -100.5t-95.5 -237.5v-608zM391 1931 l275 146l274 -146l-84 -157l-190 102l-191 -102z" />
<glyph unicode="&#xf5;" d="M102 541v608q0 238 164 410t400 172t399.5 -172.5t163.5 -409.5v-608q0 -238 -164 -413t-399 -175q-236 0 -400 175t-164 413zM340 541q0 -139 95 -242.5t231 -103.5q135 0 230 104t95 242v608q0 137 -95 237.5t-230 100.5t-230.5 -100.5t-95.5 -237.5v-608z" />
<glyph unicode="&#xf6;" d="M102 541v608q0 238 164 410t400 172t399.5 -172.5t163.5 -409.5v-608q0 -238 -164 -413t-399 -175q-236 0 -400 175t-164 413zM305 1886q0 45 33 78t78 33q47 0 79.5 -33t32.5 -78q0 -47 -32.5 -79.5t-79.5 -32.5q-45 0 -78 32.5t-33 79.5zM340 541q0 -139 95 -242.5 t231 -103.5q135 0 230 104t95 242v608q0 137 -95 237.5t-230 100.5t-230.5 -100.5t-95.5 -237.5v-608zM803 1886q0 45 32.5 78t79.5 33q45 0 78 -33t33 -78q0 -47 -32.5 -79.5t-78.5 -32.5q-47 0 -79.5 32.5t-32.5 79.5z" />
<glyph unicode="&#xf7;" d="M106 522q0 186 123 326.5t326 187.5v170h219l2 -383h-110q-131 0 -232 -82q-109 -88 -108 -219q0 -133 104.5 -220t235.5 -87q158 0 249 98q82 88 91 238h219q-10 -238 -162 -397q-158 -164 -397 -164q-227 0 -393.5 155.5t-166.5 376.5zM528 1448v283h275v-283h-275z " />
<glyph unicode="&#xf8;" d="M96 -14l125 235q-70 121 -69 262v721q0 215 150.5 367.5t363.5 152.5q164 0 299 -96l39 76h231l-125 -238q70 -121 70 -262v-721q0 -217 -150.5 -369.5t-363.5 -152.5q-166 0 -299 98l-39 -73h-232zM354 475l512 969q-85 76 -200 76q-129 0 -220.5 -93.5t-91.5 -222.5 v-729zM463 244q88 -76 203 -76q127 0 219 92t92 223v731z" />
<glyph unicode="&#xf9;" d="M104 1473v225h469v-225h-127v-1061q0 -92 64.5 -164t157.5 -72q90 0 153 74q61 68 62 162v1061h-125v225h469v-225h-123l-2 -1063q0 -184 -123 -320q-129 -137 -311 -137q-184 0 -312.5 137t-128.5 322v1061h-123zM408 1896l47 172l469 -126l-47 -170z" />
<glyph unicode="&#xfa;" d="M104 1473v225h469v-225h-127v-1061q0 -92 64.5 -164t157.5 -72q90 0 153 74q61 68 62 162v1061h-125v225h469v-225h-123l-2 -1063q0 -184 -123 -320q-129 -137 -311 -137q-184 0 -312.5 137t-128.5 322v1061h-123zM408 1942l469 126l47 -172l-469 -124z" />
<glyph unicode="&#xfb;" d="M104 1473v225h469v-225h-127v-1061q0 -92 64.5 -164t157.5 -72q90 0 153 74q61 68 62 162v1061h-125v225h469v-225h-123l-2 -1063q0 -184 -123 -320q-129 -137 -311 -137q-184 0 -312.5 137t-128.5 322v1061h-123zM391 1931l275 146l274 -146l-84 -157l-190 102 l-191 -102z" />
<glyph unicode="&#xfc;" d="M104 1473v225h469v-225h-127v-1061q0 -92 64.5 -164t157.5 -72q90 0 153 74q61 68 62 162v1061h-125v225h469v-225h-123l-2 -1063q0 -184 -123 -320q-129 -137 -311 -137q-184 0 -312.5 137t-128.5 322v1061h-123zM305 1886q0 45 33 78t78 33q47 0 79.5 -33t32.5 -78 q0 -47 -32.5 -79.5t-79.5 -32.5q-45 0 -78 32.5t-33 79.5zM803 1886q0 45 32.5 78t79.5 33q45 0 78 -33t33 -78q0 -47 -32.5 -79.5t-78.5 -32.5q-47 0 -79.5 32.5t-32.5 79.5z" />
<glyph unicode="&#xfd;" d="M104 1477v225h469v-225h-98l191 -484l190 484h-98v225h469v-225h-133l-320 -818v-452h211v-225h-637v225h205v471l-317 799h-132zM408 1942l469 126l47 -172l-469 -124z" />
<glyph unicode="&#xfe;" d="M104 -18v225h162v1270h-162v225h539v-225h-156v-148h265q199 0 337 -142.5t138 -342.5q0 -199 -139.5 -342.5t-337.5 -141.5h-263v-153h156v-225h-539zM487 586l265 -2q104 0 179 76.5t75 183.5q0 106 -75 184t-179 78h-265v-520z" />
<glyph unicode="&#xff;" d="M104 1477v225h469v-225h-98l191 -484l190 484h-98v225h469v-225h-133l-320 -818v-452h211v-225h-637v225h205v471l-317 799h-132zM305 1886q0 45 33 78t78 33q47 0 79.5 -33t32.5 -78q0 -47 -32.5 -79.5t-79.5 -32.5q-45 0 -78 32.5t-33 79.5zM803 1886q0 45 32.5 78 t79.5 33q45 0 78 -33t33 -78q0 -47 -32.5 -79.5t-78.5 -32.5q-47 0 -79.5 32.5t-32.5 79.5z" />
<glyph unicode="&#x152;" d="M102 555v578q0 236 167 402.5t405 168.5q180 2 555 0v-420h-197v223h-268v-561h299v-196h-299v-568h268v224h197v-420l-563 2q-231 0 -397.5 165.5t-166.5 401.5zM299 555q0 -127 75 -224.5t195 -129.5v1286q-121 -33 -195.5 -130t-74.5 -224v-578z" />
<glyph unicode="&#x153;" d="M102 555v578q0 236 167 402.5t405 168.5q180 2 555 0v-420h-197v223h-268v-561h299v-196h-299v-568h268v224h197v-420l-563 2q-231 0 -397.5 165.5t-166.5 401.5zM299 555q0 -127 75 -224.5t195 -129.5v1286q-121 -33 -195.5 -130t-74.5 -224v-578z" />
<glyph unicode="&#x178;" d="M104 1477v225h469v-225h-98l191 -484l190 484h-98v225h469v-225h-133l-320 -818v-452h211v-225h-637v225h205v471l-317 799h-132zM305 1886q0 45 33 78t78 33q47 0 79.5 -33t32.5 -78q0 -47 -32.5 -79.5t-79.5 -32.5q-45 0 -78 32.5t-33 79.5zM803 1886q0 45 32.5 78 t79.5 33q45 0 78 -33t33 -78q0 -47 -32.5 -79.5t-78.5 -32.5q-47 0 -79.5 32.5t-32.5 79.5z" />
<glyph unicode="&#x2c6;" d="M391 1931l275 146l274 -146l-84 -157l-190 102l-191 -102z" />
<glyph unicode="&#x2dc;" d="M379 1817q0 98 59.5 161.5t145.5 63.5q55 0 110 -34l54 -34q27 0 26 47h178q0 -98 -59 -161.5t-145 -63.5q-55 0 -110 34l-54 34q-27 0 -27 -47h-178z" />
<glyph unicode="&#x2000;" horiz-adv-x="1040" />
<glyph unicode="&#x2001;" horiz-adv-x="2081" />
<glyph unicode="&#x2002;" horiz-adv-x="1040" />
<glyph unicode="&#x2003;" horiz-adv-x="2081" />
<glyph unicode="&#x2004;" horiz-adv-x="693" />
<glyph unicode="&#x2005;" horiz-adv-x="520" />
<glyph unicode="&#x2006;" horiz-adv-x="346" />
<glyph unicode="&#x2007;" horiz-adv-x="346" />
<glyph unicode="&#x2008;" horiz-adv-x="260" />
<glyph unicode="&#x2009;" horiz-adv-x="416" />
<glyph unicode="&#x200a;" horiz-adv-x="115" />
<glyph unicode="&#x2010;" d="M336 733v223h659v-223h-659z" />
<glyph unicode="&#x2011;" d="M336 733v223h659v-223h-659z" />
<glyph unicode="&#x2012;" d="M336 733v223h659v-223h-659z" />
<glyph unicode="&#x2013;" d="M172 733v223h987v-223h-987z" />
<glyph unicode="&#x2014;" d="M0 733v223h1331v-223h-1331z" />
<glyph unicode="&#x2018;" d="M514 1135v315l135 254h139l-102 -254h133v-315h-305z" />
<glyph unicode="&#x2019;" d="M514 1389v315h305v-315l-133 -254h-141l102 254h-133z" />
<glyph unicode="&#x201a;" d="M514 -10v315h305v-315l-133 -254h-141l102 254h-133z" />
<glyph unicode="&#x201c;" d="M266 1135v315l135 254h139l-102 -254h133v-315h-305zM758 1135v315l135 254h139l-102 -254h133v-315h-305z" />
<glyph unicode="&#x201d;" d="M268 1389v315h305v-315l-133 -254h-141l102 254h-133zM760 1389v315h305v-315l-133 -254h-141l102 254h-133z" />
<glyph unicode="&#x201e;" d="M268 -10v315h305v-315l-133 -254h-141l102 254h-133zM760 -10v315h305v-315l-133 -254h-141l102 254h-133z" />
<glyph unicode="&#x2022;" d="M438 614v473h457v-473h-457z" />
<glyph unicode="&#x2026;" d="M104 -10v315h305v-315h-305zM514 -10v315h305v-315h-305zM924 -10v315h305v-315h-305z" />
<glyph unicode="&#x202f;" horiz-adv-x="416" />
<glyph unicode="&#x2039;" d="M344 524l516 518l127 -127l-391 -391l391 -391l-127 -125z" />
<glyph unicode="&#x203a;" d="M344 133l391 391l-391 391l127 127l516 -518l-516 -516z" />
<glyph unicode="&#x205f;" horiz-adv-x="520" />
<glyph unicode="&#x25fc;" horiz-adv-x="1699" d="M0 0v1700h1700v-1700h-1700z" />
</font>
</defs>
</svg>
